<?xml version="1.0" encoding="UTF-8"?>
<svg width="45px" height="45px" viewBox="0 0 45 45" version="1.1" xmlns="http://www.w3.org/2000/svg" xmlns:xlink="http://www.w3.org/1999/xlink">
    <!-- Generator: Sketch 49.3 (51167) - http://www.bohemiancoding.com/sketch -->
    <title>icon-review-1-2</title>
    <desc>Created with Sketch.</desc>
    <defs></defs>
    <g id="icon-review-1-2" stroke="none" stroke-width="1" fill="none" fill-rule="evenodd">
        <g id="Page-1" transform="translate(0.500000, 0.500000)" fill="#EB5D48">
            <path d="M22,2.51428571 C11.2552,2.51428571 2.51428571,11.2552 2.51428571,22 C2.51428571,32.7448 11.2552,41.4857143 22,41.4857143 C32.7448,41.4857143 41.4857143,32.7448 41.4857143,22 C41.4857143,11.2552 32.7448,2.51428571 22,2.51428571 M22,44 C9.86982857,44 0,34.1301714 0,22 C0,9.86982857 9.86982857,0 22,0 C34.1301714,0 44,9.86982857 44,22 C44,34.1301714 34.1301714,44 22,44" id="Fill-1"></path>
            <path d="M15.1053257,20.3266171 C14.7834971,20.3266171 14.4616686,20.2034171 14.2165257,19.9582743 L10.6613257,16.4030743 C10.1697829,15.9115314 10.1697829,15.11576 10.6613257,14.6254743 C11.1516114,14.1339314 11.9473829,14.1339314 12.4389257,14.6254743 L15.9941257,18.1806743 C16.4856686,18.6722171 16.4856686,19.4667314 15.9941257,19.9582743 C15.7489829,20.2034171 15.4271543,20.3266171 15.1053257,20.3266171" id="Fill-3"></path>
            <path d="M28.8934171,20.3266171 C28.5715886,20.3266171 28.24976,20.2034171 28.0046171,19.9582743 C27.5130743,19.4667314 27.5130743,18.6722171 28.0046171,18.1806743 L31.5610743,14.6254743 C32.0526171,14.1339314 32.8483886,14.1339314 33.3386743,14.6254743 C33.8302171,15.11576 33.8302171,15.9115314 33.3386743,16.4030743 L29.7822171,19.9582743 C29.5370743,20.2034171 29.2152457,20.3266171 28.8934171,20.3266171" id="Fill-5"></path>
            <path d="M28.5484571,30.8662514 C28.2241143,30.8662514 27.8997714,30.7405371 27.6533714,30.49288 C27.6219429,30.4601943 25.0674286,27.9345943 21.7938286,27.9295657 L21.7837714,27.9295657 C19.8766857,27.9295657 18.0450286,28.79448 16.3403429,30.4979086 C15.8488,30.9894514 15.0542857,30.9894514 14.5627429,30.4979086 C14.0712,30.0063657 14.0712,29.2118514 14.5627429,28.7203086 C16.7552,26.5278514 19.1852571,25.41528 21.7825143,25.41528 L21.824,25.41528 C26.1611429,25.4353943 29.3128,28.5933371 29.4460571,28.7278514 C29.9325714,29.2231657 29.9250286,30.0189371 29.4297143,30.5067086 C29.1845714,30.7455657 28.8665143,30.8662514 28.5484571,30.8662514" id="Fill-7"></path>
        </g>
    </g>
</svg>