<?xml version="1.0" encoding="UTF-8"?>
<svg width="45px" height="45px" viewBox="0 0 45 45" version="1.1" xmlns="http://www.w3.org/2000/svg" xmlns:xlink="http://www.w3.org/1999/xlink">
    <!-- Generator: Sketch 49.3 (51167) - http://www.bohemiancoding.com/sketch -->
    <title>icon-review-2</title>
    <desc>Created with Sketch.</desc>
    <defs></defs>
    <g id="icon-review-2" stroke="none" stroke-width="1" fill="none" fill-rule="evenodd">
        <g id="Page-1" transform="translate(0.500000, 0.500000)" fill="#D4D4D4">
            <path d="M22,2.51428571 C11.2552,2.51428571 2.51428571,11.2552 2.51428571,22 C2.51428571,32.7448 11.2552,41.4857143 22,41.4857143 C32.7448,41.4857143 41.4857143,32.7448 41.4857143,22 C41.4857143,11.2552 32.7448,2.51428571 22,2.51428571 M22,44 C9.86982857,44 0,34.1301714 0,22 C0,9.86982857 9.86982857,0 22,0 C34.1301714,0 44,9.86982857 44,22 C44,34.1301714 34.1301714,44 22,44" id="Fill-1"></path>
            <path d="M13.3288571,21.0633029 C12.6336571,21.0633029 12.0717143,20.50136 12.0717143,19.80616 L12.0717143,14.7775886 C12.0717143,14.0823886 12.6336571,13.5204457 13.3288571,13.5204457 C14.0240571,13.5204457 14.586,14.0823886 14.586,14.7775886 L14.586,19.80616 C14.586,20.50136 14.0240571,21.0633029 13.3288571,21.0633029" id="Fill-3"></path>
            <path d="M30.6722743,21.0633029 C29.9770743,21.0633029 29.4151314,20.50136 29.4151314,19.80616 L29.4151314,14.7775886 C29.4151314,14.0823886 29.9770743,13.5204457 30.6722743,13.5204457 C31.3674743,13.5204457 31.9294171,14.0823886 31.9294171,14.7775886 L31.9294171,19.80616 C31.9294171,20.50136 31.3674743,21.0633029 30.6722743,21.0633029" id="Fill-5"></path>
            <path d="M28.346,27.5714286 L15.2857143,27.5714286 C14.5747143,27.5714286 14,26.9967143 14,26.2857143 C14,25.5747143 14.5747143,25 15.2857143,25 L28.346,25 C29.057,25 29.6317143,25.5747143 29.6317143,26.2857143 C29.6317143,26.9967143 29.057,27.5714286 28.346,27.5714286" id="Fill-7"></path>
        </g>
    </g>
</svg>