<?xml version="1.0" encoding="UTF-8"?>
<svg width="24px" height="24px" viewBox="0 0 24 24" version="1.1" xmlns="http://www.w3.org/2000/svg" xmlns:xlink="http://www.w3.org/1999/xlink">
    <!-- Generator: Sketch 49.3 (51167) - http://www.bohemiancoding.com/sketch -->
    <title>icon_review_normal</title>
    <desc>Created with Sketch.</desc>
    <defs></defs>
    <g id="icon_review_normal" stroke="none" stroke-width="1" fill="none" fill-rule="evenodd">
        <path d="M15.7342831,10.1960914 L14.4523286,11.4459096 C14.3129649,11.5814551 14.2493286,11.7771369 14.2824195,11.9686823 L14.5850104,13.7333187 C14.6674195,14.2163187 14.1611922,14.5841369 13.7275104,14.3560005 L12.1429649,13.5230005 C11.9708286,13.4326369 11.7649649,13.4326369 11.5928286,13.5230005 L10.0082831,14.3560005 C9.57491948,14.5841369 9.06837402,14.2163187 9.1511013,13.7333187 L9.4536922,11.9686823 C9.48646493,11.7771369 9.42314675,11.5814551 9.28378311,11.4459096 L8.00151039,10.1960914 C7.65087402,9.85436415 7.84432857,9.25872779 8.32923766,9.18809143 L10.100874,8.93068234 C10.293374,8.90300052 10.4597831,8.78209143 10.5456922,8.60772779 L11.3382831,7.00186415 C11.5546468,6.56309143 12.1811468,6.56309143 12.3978286,7.00186415 L13.1901013,8.60772779 C13.2760104,8.78209143 13.4427377,8.90300052 13.6349195,8.93068234 L15.406874,9.18809143 C15.8914649,9.25872779 16.0852377,9.85436415 15.7342831,10.1960914 M21.7192831,7.82340961 C21.4637831,7.1883187 21.1249195,6.6003187 20.7154195,6.05304597 C20.4099649,5.64418234 20.068874,5.26745506 19.6972377,4.91809143 C19.0761468,4.33454597 18.3872831,3.84390961 17.6405104,3.43409143 C16.8810104,3.01759143 16.0826922,2.6978187 15.2496922,2.46204597 C14.4462831,2.23486415 13.6272831,2.09454597 12.7952377,2.03409143 C11.8091922,1.96218234 10.8276013,2.00386415 9.85173766,2.16072779 C9.19946493,2.26572779 8.56023766,2.42450052 7.93278311,2.63354597 C7.21432857,2.87313688 6.52705584,3.1808187 5.87191948,3.55977324 C5.14773766,3.97818234 4.48305584,4.4758187 3.88678311,5.06350052 C3.45501039,5.48827324 3.0696922,5.95122779 2.7356013,6.45777324 C2.32864675,7.07472779 2.01396493,7.73368234 1.79982857,8.44163688 C1.60605584,9.08309143 1.50741948,9.73759143 1.50041948,10.4073642 C1.48991948,11.3711369 1.6766922,12.2964096 2.04355584,13.1857278 C2.30287402,13.816046 2.6461922,14.3983187 3.05951039,14.9401823 C3.46805584,15.4756823 3.93451039,15.9558187 4.45091948,16.3875914 C4.96701039,16.819046 5.52191948,17.1932278 6.11278311,17.5142732 C6.70491948,17.8365914 7.3171013,18.1150005 7.96301039,18.3097278 C8.38746493,18.4379551 8.81446493,18.5607732 9.24591948,18.6613187 C9.78905584,18.7882732 10.3417377,18.8703642 10.8998286,18.8955005 C11.3360558,18.9149096 11.7726013,18.9257278 12.2091468,18.9298642 C12.4315558,18.9320914 12.6546013,18.9123642 12.8846468,18.9018642 L12.8846468,21.6439551 C12.9190104,21.6283642 12.9451013,21.6181823 12.9699195,21.6054551 C13.2152377,21.4772278 13.4666013,21.358546 13.7052377,21.2182278 C14.2541013,20.8955914 14.8074195,20.5786823 15.3387831,20.2286823 C15.8704649,19.8793187 16.3865558,19.5041823 16.8940558,19.1198187 C17.6156922,18.5728642 18.2981922,17.9778642 18.9183286,17.3166823 C19.2501922,16.9628642 19.5763286,16.602046 19.8859195,16.2281823 C20.3670104,15.6475005 20.7851013,15.0216369 21.1319195,14.3505914 C21.3769195,13.8761823 21.6177831,13.399546 21.8023286,12.8974551 C22.1077831,12.0663642 22.252874,11.2072732 22.2344195,10.3217732 C22.2162831,9.45759143 22.0412831,8.62522779 21.7192831,7.82340961" id="Fill-1" fill="#999999"></path>
        <rect id="Rectangle" x="0" y="0" width="24" height="24"></rect>
    </g>
</svg>