<?xml version="1.0" encoding="UTF-8"?>
<svg width="15px" height="15px" viewBox="0 0 15 15" version="1.1" xmlns="http://www.w3.org/2000/svg" xmlns:xlink="http://www.w3.org/1999/xlink">
    <!-- Generator: Sketch 49.3 (51167) - http://www.bohemiancoding.com/sketch -->
    <title>icons-remove</title>
    <desc>Created with Sketch.</desc>
    <defs></defs>
    <g id="icons-remove" stroke="none" stroke-width="1" fill="none" fill-rule="evenodd">
        <g id="icons8-remove" transform="translate(2.000000, 2.000000)" fill="#CBCBCB" fill-rule="nonzero">
            <path d="M3.72222222,0.166666667 L3.48611111,0.402777778 C3.375,0.513888889 3.23611111,0.569444444 3.09722222,0.569444444 L0.555555556,0.569444444 C0.25,0.569444444 0,0.819444444 0,1.125 C0,1.43055556 0.25,1.68055556 0.555555556,1.68055556 L9.44444444,1.68055556 C9.75,1.68055556 10,1.43055556 10,1.125 C10,0.819444444 9.75,0.569444444 9.44444444,0.569444444 L6.90277778,0.569444444 C6.75,0.569444444 6.61111111,0.513888889 6.51388889,0.402777778 L6.27777778,0.166666667 C6.16666667,0.0555555556 6.02777778,0 5.875,0 L4.125,0 C3.97222222,0 3.83333333,0.0555555556 3.72222222,0.166666667 Z M0.833333333,3.40277778 L1.65277778,10.625 C1.68055556,10.9027778 1.91666667,11.1111111 2.20833333,11.1111111 L7.80555556,11.1111111 C8.08333333,11.1111111 8.31944444,10.9027778 8.36111111,10.625 L9.18055556,3.40277778 C9.22222222,3.06944444 8.95833333,2.77777778 8.625,2.77777778 L1.375,2.77777778 C1.05555556,2.77777778 0.791666667,3.06944444 0.833333333,3.40277778 Z" id="Shape"></path>
        </g>
        <rect id="Rectangle-14" x="0" y="0" width="15" height="15"></rect>
    </g>
</svg>