<?xml version="1.0" encoding="UTF-8"?>
<svg width="45px" height="45px" viewBox="0 0 45 45" version="1.1" xmlns="http://www.w3.org/2000/svg" xmlns:xlink="http://www.w3.org/1999/xlink">
    <!-- Generator: Sketch 49.3 (51167) - http://www.bohemiancoding.com/sketch -->
    <title>icon-review-3</title>
    <desc>Created with Sketch.</desc>
    <defs></defs>
    <g id="icon-review-3" stroke="none" stroke-width="1" fill="none" fill-rule="evenodd">
        <g id="Page-1" transform="translate(0.500000, 0.500000)" fill="#D4D4D4">
            <path d="M22,2.51428571 C11.2552,2.51428571 2.51428571,11.2552 2.51428571,22 C2.51428571,32.7448 11.2552,41.4857143 22,41.4857143 C32.7448,41.4857143 41.4857143,32.7448 41.4857143,22 C41.4857143,11.2552 32.7448,2.51428571 22,2.51428571 M22,44 C9.86982857,44 0,34.1301714 0,22 C0,9.86982857 9.86982857,0 22,0 C34.1301714,0 44,9.86982857 44,22 C44,34.1301714 34.1301714,44 22,44" id="Fill-1"></path>
            <path d="M13.3288571,21.0633029 C12.6336571,21.0633029 12.0717143,20.50136 12.0717143,19.80616 L12.0717143,14.7775886 C12.0717143,14.0823886 12.6336571,13.5204457 13.3288571,13.5204457 C14.0240571,13.5204457 14.586,14.0823886 14.586,14.7775886 L14.586,19.80616 C14.586,20.50136 14.0240571,21.0633029 13.3288571,21.0633029" id="Fill-3"></path>
            <path d="M30.6722743,21.0633029 C29.9770743,21.0633029 29.4151314,20.50136 29.4151314,19.80616 L29.4151314,14.7775886 C29.4151314,14.0823886 29.9770743,13.5204457 30.6722743,13.5204457 C31.3674743,13.5204457 31.9294171,14.0823886 31.9294171,14.7775886 L31.9294171,19.80616 C31.9294171,20.50136 31.3674743,21.0633029 30.6722743,21.0633029" id="Fill-5"></path>
            <path d="M22.21736,30.8662514 L22.1758743,30.8662514 C17.8399886,30.8461371 14.6870743,27.6881943 14.5538171,27.55368 C14.06856,27.0583657 14.0748457,26.2625943 14.57016,25.7748229 C15.0667314,25.2908229 15.8574743,25.2971086 16.3465029,25.7886514 C16.3779314,25.8213371 18.9324457,28.3469371 22.2060457,28.3519657 L22.2161029,28.3519657 C24.1244457,28.3519657 25.9561029,27.4870514 27.6595314,25.7836229 C28.1510743,25.29208 28.9468457,25.29208 29.4371314,25.7836229 C29.9286743,26.2751657 29.9286743,27.06968 29.4371314,27.5612229 C27.2446743,29.75368 24.8146171,30.8662514 22.21736,30.8662514" id="Fill-7"></path>
        </g>
    </g>
</svg>