<?xml version="1.0" encoding="UTF-8"?>
<svg width="38px" height="38px" viewBox="0 0 38 38" version="1.1" xmlns="http://www.w3.org/2000/svg" xmlns:xlink="http://www.w3.org/1999/xlink">
    <!-- Generator: Sketch 49.3 (51167) - http://www.bohemiancoding.com/sketch -->
    <title>red pocket_normal</title>
    <desc>Created with Sketch.</desc>
    <defs></defs>
    <g id="red-pocket_normal" stroke="none" stroke-width="1" fill="none" fill-rule="evenodd">
        <path d="M27.9999,36.6664 L9.9999,36.6664 C7.7999,36.6664 5.9999,34.8664 5.9999,32.6664 L5.9999,5.9994 C5.9999,3.8004 7.7999,1.9994 9.9999,1.9994 L27.9999,1.9994 C30.1999,1.9994 31.9999,3.8004 31.9999,5.9994 L31.9999,32.6664 C31.9999,34.8664 30.1999,36.6664 27.9999,36.6664" id="Fill-1" fill="#D1323A"></path>
        <path d="M27.6669,1.9999 L10.3339,1.9999 C7.9499,1.9999 5.9999,3.9499 5.9999,6.3329 L5.9999,12.9929 C9.9849,15.2989 14.6069,16.6249 19.5419,16.6249 C24.0359,16.6249 28.2699,15.5239 31.9999,13.5869 L31.9999,6.3329 C31.9999,3.9499 30.0499,1.9999 27.6669,1.9999" id="Fill-4" fill="#E6565D"></path>
        <path d="M23.4999,16.5209 C23.4999,19.0059 21.4849,21.0209 18.9999,21.0209 C16.5149,21.0209 14.4999,19.0059 14.4999,16.5209 C14.4999,14.0359 16.5149,12.0209 18.9999,12.0209 C21.4849,12.0209 23.4999,14.0359 23.4999,16.5209" id="Fill-7" fill="#FCCE21"></path>
    </g>
</svg>