<?xml version="1.0" encoding="UTF-8"?>
<svg width="38px" height="38px" viewBox="0 0 38 38" version="1.1" xmlns="http://www.w3.org/2000/svg" xmlns:xlink="http://www.w3.org/1999/xlink">
    <!-- Generator: Sketch 49.3 (51167) - http://www.bohemiancoding.com/sketch -->
    <title>icon_red pocket_opened</title>
    <desc>Created with Sketch.</desc>
    <defs></defs>
    <g id="icon_red-pocket_opened" stroke="none" stroke-width="1" fill="none" fill-rule="evenodd">
        <path d="M27.9999,36.6664 L9.9999,36.6664 C7.7999,36.6664 5.9999,34.8664 5.9999,32.6664 L5.9999,13.0004 C5.9999,10.8004 7.7999,9.0004 9.9999,9.0004 L27.9999,9.0004 C30.1999,9.0004 31.9999,10.8004 31.9999,13.0004 L31.9999,32.6664 C31.9999,34.8664 30.1999,36.6664 27.9999,36.6664" id="Fill-1" fill="#D1323A"></path>
        <path d="M23.4999,16.5209 C23.4999,19.0059 21.4849,21.0209 18.9999,21.0209 C16.5149,21.0209 14.4999,19.0059 14.4999,16.5209 C14.4999,14.0359 16.5149,12.0209 18.9999,12.0209 C21.4849,12.0209 23.4999,14.0359 23.4999,16.5209" id="Fill-4" fill="#FCCE21"></path>
        <path d="M5.9999,6.8197 L5.9999,12.9927 C9.9839,15.2987 14.6069,16.6257 19.5419,16.6257 C24.0359,16.6257 28.2699,15.5237 31.9999,13.5877 L31.9999,6.2847 C31.9999,5.5217 31.5729,4.8087 30.8799,4.4887 C27.4309,2.8947 23.5919,1.9997 19.5419,1.9997 C15.0309,1.9997 10.7809,3.1087 7.0409,5.0597 C6.3919,5.3987 5.9999,6.0877 5.9999,6.8197" id="Fill-6" fill="#F2F2F2"></path>
    </g>
</svg>