<?xml version="1.0" encoding="UTF-8"?>
<svg width="32px" height="32px" viewBox="0 0 32 32" version="1.1" xmlns="http://www.w3.org/2000/svg" xmlns:xlink="http://www.w3.org/1999/xlink">
    <!-- Generator: Sketch 49.3 (51167) - http://www.bohemiancoding.com/sketch -->
    <title>icon_alipay</title>
    <desc>Created with Sketch.</desc>
    <defs>
        <linearGradient x1="50%" y1="0%" x2="50%" y2="100%" id="linearGradient-1">
            <stop stop-color="#82D5FB" offset="0%"></stop>
            <stop stop-color="#009FE8" offset="100%"></stop>
        </linearGradient>
    </defs>
    <g id="icon_alipay" stroke="none" stroke-width="1" fill="none" fill-rule="evenodd">
        <g>
            <rect id="Rectangle-8" fill="url(#linearGradient-1)" x="1" y="1" width="30" height="30" rx="8"></rect>
            <path d="M17.1133333,18.2109333 C15.4253333,17.6442667 13.94,17.0096 12.3906667,16.6562667 C10.2946667,16.1802667 8.22133333,16.4029333 6.42533333,17.7269333 C5.004,18.7762667 4.98133333,20.5282667 6.304,21.6282667 C7.83466667,22.9042667 10.96,23.2509333 12.716,22.3162667 C14.4706667,21.3816 15.7413333,19.9216 17.1133333,18.2109333 Z M18.0676621,8.98730788 L18.0676621,10.9680864 L24.0296932,10.9680864 C23.6656932,13.2014197 22.3053333,15.0069333 21.2493333,17.0229333 C24.4066667,18.0989333 27.8750105,19.1873583 31.0350105,20.2646916 L30.934743,24.6693549 C27.2280764,22.8986882 23.3173333,21.1322667 19.708,19.4082667 C18.8906667,20.3442667 18.196,21.2722667 17.368,22.0642667 C14.6853333,24.6269333 11.4973333,25.3989333 7.924,24.4682667 C5.97866667,23.9629333 4.46636667,22.6827963 4.1157,20.6614629 C3.78236667,18.7374629 4.79466667,17.2536 6.29733333,16.0909333 C8.34666667,14.5042667 11.164132,13.842432 13.608132,14.3277653 C15.3987987,14.682432 16.6906667,15.5589333 18.6773333,15.9962667 C19.096,14.8642667 19.4856759,13.4451473 19.9856759,12.0931473 L8.98508937,12.0044629 L8.98508937,10.9680864 L14.9733333,10.9680864 L14.9733333,8.98730788 L7.924,8.98730788 L7.912,7.9536 L14.9733333,7.9536 L14.9733333,4.98068718 L18.0676621,5.12693333 C18.0676621,4.98385001 18.0676621,4.93510129 18.0676621,4.98068718 C18.0676621,5.02627306 18.0676621,6.017244 18.0676621,7.9536 L25.0401552,7.9536 L25.0401552,8.98730788 L18.0676621,8.98730788 Z" id="Fill-3" fill-opacity="0.85" fill="#FFFFFF"></path>
        </g>
    </g>
</svg>