<?xml version="1.0" encoding="utf-8"?>
<!-- Generator: Adobe Illustrator 23.0.1, SVG Export Plug-In . SVG Version: 6.00 Build 0)  -->
<svg version="1.1" id="圖層_1" xmlns="http://www.w3.org/2000/svg" xmlns:xlink="http://www.w3.org/1999/xlink" x="0px" y="0px"
	 viewBox="0 0 32 45" style="enable-background:new 0 0 32 45;" xml:space="preserve">
<style type="text/css">
	.st0{fill:url(#SVGID_1_);}
	.st1{fill:url(#SVGID_2_);}
	.st2{fill:url(#SVGID_3_);}
	.st3{fill:url(#SVGID_4_);}
	.st4{fill:url(#SVGID_5_);}
	.st5{opacity:0.9;fill:url(#SVGID_6_);enable-background:new    ;}
	.st6{fill:url(#SVGID_7_);}
	.st7{opacity:0.19;clip-path:url(#SVGID_9_);}
	.st8{fill:#EB6D93;}
	.st9{opacity:0.19;clip-path:url(#SVGID_11_);}
</style>
<g>
	<g>
		
			<linearGradient id="SVGID_1_" gradientUnits="userSpaceOnUse" x1="16.1927" y1="50.4406" x2="15.8663" y2="-11.7345" gradientTransform="matrix(1 0 0 -1 0 45)">
			<stop  offset="0" style="stop-color:#ED7B5C"/>
			<stop  offset="0.7716" style="stop-color:#D94140"/>
		</linearGradient>
		<path class="st0" d="M27,44.3H5c-2.2,0-4-1.8-4-4v-37c0-1.4,1.2-2.6,2.6-2.6h24.9c1.4,0,2.6,1.2,2.6,2.6v36.9
			C31,42.5,29.2,44.3,27,44.3z"/>
		
			<linearGradient id="SVGID_2_" gradientUnits="userSpaceOnUse" x1="16.0306" y1="42.581" x2="15.9126" y2="20.0993" gradientTransform="matrix(1 0 0 -1 0 45)">
			<stop  offset="0" style="stop-color:#ED7B5C"/>
			<stop  offset="0.7716" style="stop-color:#D94140"/>
		</linearGradient>
		<path class="st1" d="M1,10.4L1,10.4C1.1,16,7.8,20.5,16,20.5s14.9-4.5,15-10l0,0V6c0-1.8-1.5-1.3-3.3-1.3H4.3C2.5,4.8,1,4.2,1,6
			V10.4z"/>
		
			<linearGradient id="SVGID_3_" gradientUnits="userSpaceOnUse" x1="-407.8393" y1="-41.9091" x2="-399.7925" y2="-41.9091" gradientTransform="matrix(-0.9524 0.3049 -0.3049 -0.9524 -381.5695 104.0083)">
			<stop  offset="2.512887e-02" style="stop-color:#D94140;stop-opacity:0"/>
			<stop  offset="0.52" style="stop-color:#D94140;stop-opacity:0.8968"/>
			<stop  offset="0.577" style="stop-color:#D94140"/>
			<stop  offset="1" style="stop-color:#C6435C"/>
		</linearGradient>
		<circle class="st2" cx="15.8" cy="20.8" r="4"/>
		<g>
			
				<radialGradient id="SVGID_4_" cx="-383.5298" cy="74.2505" r="5.9784" gradientTransform="matrix(1.3689 -0.6134 -0.6134 -1.3689 581.9414 -116.454)" gradientUnits="userSpaceOnUse">
				<stop  offset="0" style="stop-color:#FCC854"/>
				<stop  offset="1" style="stop-color:#F6AB34"/>
			</radialGradient>
			<circle class="st3" cx="15.9" cy="20.1" r="4"/>
			
				<radialGradient id="SVGID_5_" cx="-379.5379" cy="72.1599" r="3.7819" gradientTransform="matrix(1.3689 -0.6134 -0.6134 -1.3689 581.9414 -116.454)" gradientUnits="userSpaceOnUse">
				<stop  offset="0" style="stop-color:#FEF37F"/>
				<stop  offset="0.773" style="stop-color:#F7CC4C"/>
			</radialGradient>
			<circle class="st4" cx="16.1" cy="19.7" r="4"/>
			
				<radialGradient id="SVGID_6_" cx="-379.6855" cy="72.8141" r="5.8123" gradientTransform="matrix(1.3689 -0.6134 -0.6134 -1.3689 581.9414 -116.454)" gradientUnits="userSpaceOnUse">
				<stop  offset="0" style="stop-color:#FCD63F"/>
				<stop  offset="0.773" style="stop-color:#F6AB34"/>
			</radialGradient>
			<circle class="st5" cx="16.3" cy="19.6" r="3"/>
			
				<radialGradient id="SVGID_7_" cx="-379.9048" cy="72.7367" r="5.8123" gradientTransform="matrix(1.3689 -0.6134 -0.6134 -1.3689 581.9414 -116.454)" gradientUnits="userSpaceOnUse">
				<stop  offset="0" style="stop-color:#FCD63F"/>
				<stop  offset="0.773" style="stop-color:#F6AB34"/>
			</radialGradient>
			<circle class="st6" cx="16" cy="19.9" r="3"/>
		</g>
	</g>
	<g>
		<g>
			<defs>
				<path id="SVGID_8_" d="M27,44.3H5c-2.2,0-4-1.8-4-4V4.7c0-2.2,1.8-4,4-4h22c2.2,0,4,1.8,4,4v35.5C31,42.5,29.2,44.3,27,44.3z"/>
			</defs>
			<clipPath id="SVGID_9_">
				<use xlink:href="#SVGID_8_"  style="overflow:visible;"/>
			</clipPath>
			<g class="st7">
				<path class="st8" d="M2.8,47.2C1.9,47.6,1,48,0.1,48.3c-0.4,0.1-0.9,0.1-1.3-0.1c-1.2-0.5-2.3-1.1-3.4-1.6
					c-0.2-0.1-0.3-0.3-0.4-0.4c-0.1-0.8-0.2-1.7-0.1-2.5s0.7-1.2,1.4-1.3c0.8,0,1.1,0.3,1.1,1.1c-0.2,1.4,0.4,2.1,2.2,2.7
					c0.8,0.3,1.8,0.4,2.6,0.6c0.2,0,0.4,0.1,0.5,0.1C2.7,47.1,2.7,47.1,2.8,47.2z"/>
				<path class="st8" d="M-1.1,35.7C-1.5,35.1-2,34.6-2.2,34c-0.2-0.4,0-1,0.2-1.4c0.3-0.8,0.7-1.5,1-2.3c0.1-0.4,0.3-0.5,0.7-0.5
					c0.9,0,1.8,0,2.7,0s1.3,0.4,1,1.3c-0.3,1-0.8,1.6-1.9,1.7c-0.7,0-1.3,0.1-1.9,0.3c-0.2,0-0.5,0.3-0.5,0.5c0,0.7,0.1,1.4,0.1,2.1
					C-1,35.6-1.1,35.7-1.1,35.7z"/>
				<path class="st8" d="M16.7,46.1c-0.6-0.1-1.3-0.2-1.9-0.4c-0.3-0.1-0.8-0.1-0.7-0.6s0.4-0.9,1-0.9c0.1,0,0.1,0,0.2,0
					c1.4,0.2,1.8,0.1,2.4-1.2c0.6-1.1,1-2.3,1.5-3.5c0.1-0.3,0.2-0.6,0.6-0.5c0.3,0.1,0.7,0.3,0.7,0.5c0,0.4-0.1,0.9-0.2,1.2
					c-0.3,0.6-0.6,1.1-0.9,1.7c-0.1,0.3-0.3,0.7-0.2,1c0.2,0.7-0.2,1.1-0.7,1.5C18,45.6,17.5,46.2,16.7,46.1z"/>
				<path class="st8" d="M2.6,37.2c-0.6,0-1.3,0.1-2,0.1c-0.2,0-0.4-0.2-0.5-0.4c-0.5-1-0.7-2.1-0.5-3.3c0.8-0.1,1.6-0.3,2.4-0.3
					c0.9,0,1.7,0.6,1.8,1.5c0,0.2-0.1,0.3-0.2,0.5C3.2,35.9,2.9,36.5,2.6,37.2z"/>
				<path class="st8" d="M9.2,43.7c1.6,0.6,2.5,0,3.2-1.1c0.3-0.5,1.3-0.8,1.7-0.5c0.5,0.4,0.4,1,0.3,1.5c-0.2,1-2.1,2.7-3.1,2.9
					c-0.5,0.1-0.9-0.1-1.2-0.5C9.8,45.4,9.6,44.6,9.2,43.7z"/>
				<path class="st8" d="M18.2,37.4c0.4,1,0.8,1.8,0.4,2.7s-0.8,1.8-1.2,2.6c-0.5,1-0.8,1-1.9,0.8c0.1-0.3,0.1-0.5,0.2-0.8
					c0.1-0.4,0.2-0.9-0.3-1.2c-0.1-0.1-0.1-0.5,0-0.7c0.1-0.3,0.4-0.5,0.4-0.7C15.9,38.5,17.2,38.2,18.2,37.4z"/>
				<path class="st8" d="M15.8,35.8c-0.9-0.8-1.8-1.5-2.6-2.4c-0.4-0.4-0.8-1-1-1.6c-0.1-0.3,0-0.9,0.2-1.1s0.7-0.2,1.1-0.2
					c0.2,0,0.3,0.1,0.5,0.1c0.3,0,0.6,0,1,0C15.5,32.3,16.7,33.9,15.8,35.8z"/>
				<path class="st8" d="M5.1,44c-0.4,1.2-1.9,2.3-3.1,2.1c-1.1-0.2-2.2-0.6-3.3-1c-0.3-0.1-0.6-0.6-0.7-1c-0.2-0.8,0.3-1.2,1.1-0.9
					c1,0.3,2,0.6,3,0.8c0.8,0.1,1.6,0.1,2.4,0.1C4.6,44.1,4.8,44,5.1,44z"/>
				<path class="st8" d="M16,31.9c0.7-0.2,1.2-0.3,1.9-0.4c0.5,0.5,0.8,1.3,0.9,2.1c0,0.8,0,1.7,0,2.5c0,0.1,0,0.3-0.1,0.4
					c-0.6,0.4-1.2,0.8-1.9,1.1c-0.2,0.1-0.5-0.1-0.7-0.2c-0.1-0.2-0.2-0.6-0.1-0.7c1.1-1.4,0.9-2.7,0.2-4.2
					C16.1,32.2,16.1,32,16,31.9z"/>
				<path class="st8" d="M13.5,35.1c1.5,0.9,2.3,2.4,2.1,3.8c-0.2,1.2-1.5,2.3-2.8,2.5c0.6-1.3,0.5-2.2-0.3-3.5
					C13.6,37.3,13.5,36.2,13.5,35.1z"/>
				<path class="st8" d="M9,32.2c0.5,0,1.1,0,1.7,0c0.2,0,0.4,0.1,0.5,0.2c1.3,1.1,2,2.3,1.3,4c-0.1,0.2-0.1,0.4-0.2,0.7
					c-0.3-0.4-0.6-0.7-0.8-1.1c-0.5-0.7-1.1-1.3-2.1-1.5C9,34.5,9,34.1,9,33.7C9,33.2,9,32.7,9,32.2z"/>
				<path class="st8" d="M11,31.3c-0.9,0.1-1.8,0.3-2.7,0.4c-0.1,0-0.2,0-0.3,0c-1.2-0.8-2.4-1.5-4.1-1.7c0.8-0.6,1.5-1.1,2.1-1.6
					c0.2-0.1,0.6-0.1,0.7,0c0.9,1,2,1.6,3.2,2.1c0.4,0.1,0.7,0.4,1.1,0.6C11,31.2,11,31.3,11,31.3z"/>
				<path class="st8" d="M5.7,43.9c0.9,0.2,1.9,0.5,2.9-0.3c0.1,0.7,0.3,1.3,0.3,1.8c0,0.3-0.3,0.7-0.5,0.9c-1.4,0.9-2.6,0.9-4-0.4
					c0.2-0.3,0.5-0.6,0.7-1C5.4,44.7,5.5,44.3,5.7,43.9z"/>
				<path class="st8" d="M4.3,34.4c-0.5-0.8-0.8-1.6-0.2-2.5c0.2-0.3,0.2-0.6,0.3-1c1.2,0.5,2.3,1,3.4,1.5c0.7,0.3,0.7,0.8,0.4,2
					C8,34.2,7.8,34.1,7.7,34c-0.6-0.5-1.2,0-1.7,0C5.3,34,4.8,33.7,4.3,34.4z"/>
				<path class="st8" d="M4.9,40.6c-0.5,0.7-1.1,1-1.8,0.6c-1.1-0.6-2-1.3-3-2c-0.5-0.3-0.3-0.7,0.1-1c0.8-0.5,1.9-0.4,2.6,0.3
					c0.4,0.4,0.6,1,1,1.4C4.1,40.2,4.5,40.4,4.9,40.6z"/>
				<path class="st8" d="M5.5,40.8c0.7,0.1,1.3,0.2,1.9,0.3c0.9,0.1,1.3,0.4,1.3,1c0,0.7-0.4,1.2-1.3,1.3c-1.2,0.2-2.2-0.2-3.2-0.9
					c0-0.1-0.2-0.4-0.1-0.5c0.1-0.2,0.3-0.4,0.5-0.4C5.2,41.6,5.6,41.4,5.5,40.8z"/>
				<path class="st8" d="M12.2,40.1C12,41.2,12,42.4,10.7,43c-0.7,0.3-1,0.1-1.1-0.6C9.3,41,10,40,10.9,39.1
					c0.2-0.2,0.7-0.3,0.9-0.2c0.2,0,0.3,0.5,0.4,0.7C12.2,39.8,12.2,39.9,12.2,40.1z"/>
				<path class="st8" d="M4.2,43.6c-0.4,0-0.7,0.1-1.1,0C2.4,43.4,1.7,43.2,1,43s-1.3-0.4-2-0.7c0.4-1.3,1.3-1.7,2.6-1.1
					c0.2,0.1,0.5,0.2,0.7,0.2c0.5,0.1,0.9,0.4,1.1,0.9C3.6,42.7,3.9,43.1,4.2,43.6z"/>
				<path class="st8" d="M7.8,36.8c0.7,0.4,1.2,0.6,1.7,1C10,38.1,10,39.1,9.6,40c-0.4,0.7-1.1,1-1.8,0.8c-0.4-0.1-0.6-0.4-0.4-0.8
					C7.9,39,8,38,7.8,36.8z"/>
				<path class="st8" d="M4.3,36.1c0.6-1.6,1.2-1.9,2.9-1.3c0.4,0.1,0.9,0.2,1.5,0.3c-0.5,0.5-0.8,1-1.3,1.3
					c-0.3,0.2-0.8,0.1-1.1-0.1c-0.4-0.2-0.8-0.4-1.3-0.2C4.8,36.2,4.5,36.1,4.3,36.1z"/>
				<path class="st8" d="M4.7,39.4c-1.2-0.7-1.7-1.8-1.3-2.7c0.6,0,1.1,0,1.7,0c0.7,0,0.8,0.2,0.6,0.8C5.4,38.2,5,38.8,4.7,39.4z"/>
				<path class="st8" d="M10.2,38.2c-0.2-0.9-0.7-1.7-1.9-1.8c0.3-0.4,0.4-0.7,0.7-1c0.1-0.1,0.4-0.2,0.6-0.1
					c0.9,0.7,1.8,1.3,2.3,2.2C11.3,37.7,10.8,37.9,10.2,38.2z"/>
				<path class="st8" d="M7.2,39.1C7.1,39.5,7,40,6.9,40.5c-0.5-0.3-1-0.6-1.7-1c0.7-0.3,1.3-0.4,1.9-0.6C7.1,38.9,7.2,39,7.2,39.1z
					"/>
				<path class="st8" d="M7.4,37.6c0.1,0.6,0,0.9-0.7,0.8c-0.3,0-0.5,0.2-0.8,0.3C5.8,37.9,6.2,37.6,7.4,37.6z"/>
			</g>
		</g>
		<g>
			<defs>
				<path id="SVGID_10_" d="M27,44.3H5c-2.2,0-4-1.8-4-4V4.7c0-2.2,1.8-4,4-4h22c2.2,0,4,1.8,4,4v35.5C31,42.5,29.2,44.3,27,44.3z"
					/>
			</defs>
			<clipPath id="SVGID_11_">
				<use xlink:href="#SVGID_10_"  style="overflow:visible;"/>
			</clipPath>
			<g class="st9">
				<path class="st8" d="M22.1,7.8c-0.3,0.2-0.5,0.4-0.7,0.5C21.6,8.5,21.9,8.8,22,9c0.2,0.3,0.2,0.4-0.2,0.5
					c-0.2,0-0.4,0.1-0.5,0.4c-0.3,0.7-1.1,0.8-1.5,0.1c-0.3-0.5-0.4-1-0.5-1.6c-0.1-0.4-0.1-0.9-0.1-1.3c0-0.2,0-0.5,0.3-0.6
					s0.6-0.2,0.9,0.1c0.2,0.2,0.4,0.2,0.6,0.3C21.4,7.1,21.7,7.5,22.1,7.8z"/>
				<path class="st8" d="M23.9,13.6c-0.5,0.2-1,0.5-1.6,0.7c-0.2,0.1-0.5,0.1-0.8,0c-0.7-0.3-1.4-0.6-2.1-1c-0.1,0-0.2-0.2-0.2-0.2
					c0-0.5-0.1-1-0.1-1.5s0.4-0.7,0.8-0.8c0.5,0,0.7,0.2,0.6,0.7c-0.1,0.9,0.2,1.3,1.3,1.6c0.5,0.2,1.1,0.2,1.6,0.4
					c0.1,0,0.2,0.1,0.3,0.1C23.9,13.5,23.9,13.5,23.9,13.6z"/>
				<path class="st8" d="M24.7,13.5c0.5,0.4,1.3,0.5,2,0.4c0.4,0,0.6,0.2,0.8,0.5c0.2,0.3,0,0.6-0.3,0.8c-0.5,0.3-1,0.5-1.6,0.7
					c-0.1,0-0.1,0-0.2,0c-0.7-0.3-1.4-0.7-2-1c-0.4-0.2-0.3-0.4,0-0.6C23.8,14,24.2,13.7,24.7,13.5z"/>
				<path class="st8" d="M31.9,13.2c-0.1,1-0.7,1.6-1.8,1.8c-0.5,0.1-1,0.1-1.5,0.1c-0.2,0-0.4-0.1-0.5-0.3c-0.2-0.3-0.5-0.7-0.6-1
					c0-0.1,0-0.3,0.1-0.4c0.1-0.1,0.4-0.3,0.5-0.1c0.5,0.6,1,0.4,1.5,0.1c0.3-0.1,0.6-0.4,0.8-0.6C31,13,31.5,13.1,31.9,13.2z"/>
				<path class="st8" d="M21.6,6.6c-0.2-0.3-0.5-0.7-0.7-1c-0.1-0.2,0-0.6,0.1-0.9c0.2-0.5,0.4-0.9,0.6-1.4C21.6,3.1,21.7,3,22,3
					c0.5,0,1.1,0,1.6,0c0.6,0,0.8,0.3,0.6,0.8c-0.2,0.6-0.5,1-1.2,1c-0.4,0-0.8,0.1-1.2,0.2c-0.1,0-0.3,0.2-0.3,0.3
					C21.6,5.7,21.6,6.1,21.6,6.6L21.6,6.6z"/>
				<path class="st8" d="M32.4,12.9c-0.4-0.1-0.8-0.1-1.1-0.2c-0.2,0-0.5-0.1-0.4-0.4c0.1-0.3,0.3-0.5,0.6-0.5h0.1
					c0.8,0.1,1.1,0,1.5-0.7c0.3-0.7,0.6-1.4,0.9-2.1c0-0.2,0-0.4,0.2-0.3c0.2,0.1,0.4,0.2,0.4,0.3c0,0.2,0,0.5-0.1,0.8
					c-0.2,0.4-0.4,0.7-0.6,1.1c-0.1,0.2-0.2,0.4-0.1,0.6c0.1,0.4-0.1,0.7-0.4,0.9C33.2,12.6,32.9,12.9,32.4,12.9z"/>
				<path class="st8" d="M23.8,7.5c-0.3,0-0.8,0.1-1.2,0c-0.1,0-0.3-0.1-0.3-0.2c-0.3-0.6-0.4-1.2-0.3-2c0.5-0.1,1-0.2,1.4-0.2
					c0.6,0,1,0.4,1.1,0.9c0,0.1-0.1,0.2-0.1,0.3C24.2,6.8,24,7.1,23.8,7.5z"/>
				<path class="st8" d="M27.8,11.5c1,0.4,1.5,0,1.9-0.7c0.2-0.3,0.8-0.5,1-0.3c0.3,0.2,0.2,0.6,0.2,0.9c-0.1,0.6-1.3,1.7-1.9,1.8
					c-0.3,0.1-0.6,0-0.7-0.3C28.2,12.5,28,12,27.8,11.5z"/>
				<path class="st8" d="M33.3,7.6c0.3,0.6,0.5,1.1,0.2,1.6s-0.5,1.1-0.7,1.6c-0.3,0.6-0.5,0.6-1.2,0.5c0-0.2,0.1-0.3,0.1-0.5
					c0-0.3,0.1-0.5-0.2-0.8c-0.1-0.1,0-0.3,0-0.5s0.2-0.3,0.2-0.4C31.9,8.3,32.7,8.1,33.3,7.6z"/>
				<path class="st8" d="M31.8,6.7c-0.6-0.5-1.1-0.9-1.6-1.4c-0.3-0.3-0.5-0.6-0.6-1c-0.1-0.2,0-0.5,0.1-0.7
					c0.1-0.1,0.4-0.1,0.6-0.1c0.1,0,0.2,0.1,0.3,0.1c0.2,0,0.4,0,0.6,0C31.6,4.6,32.3,5.6,31.8,6.7z"/>
				<path class="st8" d="M25.3,11.6c-0.2,0.7-1.2,1.4-1.9,1.3c-0.7-0.1-1.4-0.4-2-0.6c-0.2-0.1-0.4-0.4-0.4-0.6
					c-0.1-0.5,0.2-0.7,0.6-0.6c0.6,0.2,1.2,0.4,1.8,0.5c0.5,0.1,1,0,1.4,0.1C25,11.7,25.1,11.7,25.3,11.6z"/>
				<path class="st8" d="M31.9,4.3c0.4-0.1,0.8-0.2,1.2-0.3c0.3,0.3,0.5,0.8,0.5,1.3s0,1,0,1.5c0,0.1,0,0.2-0.1,0.2
					c-0.4,0.2-0.7,0.5-1.1,0.6c-0.1,0-0.3,0-0.4-0.1c-0.1-0.1-0.1-0.3,0-0.4c0.7-0.8,0.6-1.7,0.1-2.5C32,4.5,32,4.4,31.9,4.3z"/>
				<path class="st8" d="M30.4,6.3c0.9,0.5,1.4,1.5,1.2,2.3c-0.1,0.7-0.9,1.4-1.7,1.5c0.3-0.8,0.3-1.3-0.2-2.1
					C30.5,7.6,30.4,6.9,30.4,6.3z"/>
				<path class="st8" d="M27.7,4.5c0.3,0,0.7,0,1.1,0c0.1,0,0.2,0.1,0.3,0.1C29.9,5.3,30.3,6,29.9,7c0,0.1-0.1,0.3-0.1,0.4
					c-0.2-0.2-0.4-0.4-0.5-0.6C29,6.4,28.6,6,28.1,5.9c-0.3-0.1-0.3-0.3-0.3-0.5C27.7,5.1,27.7,4.8,27.7,4.5z"/>
				<path class="st8" d="M28.9,4c-0.5,0.1-1.1,0.2-1.6,0.2c-0.1,0-0.1,0-0.2,0c-0.7-0.5-1.5-0.9-2.5-1c0.5-0.4,0.9-0.7,1.3-1
					c0.1-0.1,0.4-0.1,0.4,0c0.5,0.6,1.2,1,2,1.2c0.2,0.1,0.4,0.2,0.6,0.3C28.9,3.9,28.9,3.9,28.9,4z"/>
				<path class="st8" d="M25.7,11.6c0.6,0.1,1.1,0.3,1.7-0.2c0.1,0.4,0.2,0.8,0.2,1.1c0,0.2-0.2,0.4-0.3,0.5
					c-0.8,0.5-1.6,0.5-2.4-0.2c0.2-0.2,0.3-0.4,0.4-0.6C25.5,12.1,25.6,11.8,25.7,11.6z"/>
				<path class="st8" d="M24.9,5.8c-0.3-0.5-0.5-1-0.1-1.5c0.1-0.2,0.1-0.4,0.2-0.6c0.7,0.3,1.4,0.6,2.1,0.9
					c0.4,0.2,0.4,0.5,0.2,1.2c-0.1-0.1-0.2-0.2-0.3-0.2c-0.4-0.3-0.7,0-1,0C25.5,5.6,25.1,5.4,24.9,5.8z"/>
				<path class="st8" d="M25.2,9.6c-0.3,0.4-0.7,0.6-1.1,0.3c-0.6-0.4-1.2-0.8-1.8-1.2c-0.3-0.2-0.2-0.4,0.1-0.6
					c0.5-0.3,1.2-0.3,1.6,0.2c0.2,0.3,0.4,0.6,0.6,0.8C24.7,9.3,25,9.5,25.2,9.6z"/>
				<path class="st8" d="M25.6,9.7c0.4,0.1,0.8,0.1,1.1,0.2c0.5,0,0.8,0.2,0.8,0.6c0,0.4-0.3,0.7-0.8,0.8c-0.7,0.1-1.3-0.1-1.9-0.5
					c-0.1-0.1-0.2-0.2-0.2-0.3c0.1-0.1,0.2-0.2,0.3-0.2C25.4,10.2,25.7,10.1,25.6,9.7z"/>
				<path class="st8" d="M29.6,9.3c-0.1,0.7-0.1,1.4-0.9,1.8c-0.4,0.2-0.6,0.1-0.7-0.4c-0.1-0.8,0.3-1.4,0.8-2
					c0.1-0.1,0.4-0.2,0.6-0.1c0.1,0,0.2,0.3,0.2,0.5C29.6,9.1,29.6,9.2,29.6,9.3z"/>
				<path class="st8" d="M24.8,11.4c-0.2,0-0.5,0-0.7,0c-0.4-0.1-0.8-0.2-1.3-0.3c-0.4-0.1-0.8-0.3-1.2-0.4c0.2-0.8,0.8-1,1.5-0.7
					c0.1,0.1,0.3,0.1,0.4,0.1c0.3,0.1,0.5,0.2,0.7,0.5C24.4,10.9,24.6,11.1,24.8,11.4z"/>
				<path class="st8" d="M26.9,7.3c0.4,0.2,0.7,0.4,1,0.6c0.3,0.2,0.3,0.8,0.1,1.3c-0.2,0.4-0.7,0.6-1.1,0.5
					c-0.2-0.1-0.4-0.3-0.3-0.5C27,8.6,27.1,8,26.9,7.3z"/>
				<path class="st8" d="M24.8,6.9c0.4-1,0.7-1.1,1.7-0.8c0.3,0.1,0.6,0.1,0.9,0.2C27.2,6.6,27,6.9,26.7,7c-0.2,0.1-0.5,0-0.7-0.1
					c-0.3-0.1-0.5-0.3-0.8-0.1C25.1,6.9,25,6.9,24.8,6.9z"/>
				<path class="st8" d="M25.1,8.9c-0.7-0.4-1-1.1-0.8-1.7c0.4,0,0.7,0,1,0c0.4,0,0.5,0.1,0.4,0.5C25.5,8.1,25.3,8.5,25.1,8.9z"/>
				<path class="st8" d="M28.4,8.1c-0.1-0.6-0.4-1-1.2-1.1c0.2-0.2,0.3-0.4,0.4-0.6c0.2,0,0.4-0.1,0.4,0c0.5,0.4,1.1,0.8,1.4,1.4
					C29.1,7.9,28.8,8,28.4,8.1z"/>
				<path class="st8" d="M26.6,8.7c-0.1,0.3-0.1,0.5-0.2,0.9c-0.3-0.2-0.6-0.4-1.1-0.6c0.5-0.2,0.8-0.3,1.2-0.4
					C26.6,8.6,26.6,8.6,26.6,8.7z"/>
				<path class="st8" d="M26.7,7.8c0.1,0.4,0,0.5-0.4,0.5c-0.2,0-0.3,0.1-0.5,0.2C25.8,8,26,7.8,26.7,7.8z"/>
			</g>
		</g>
	</g>
</g>
</svg>
