<?xml version="1.0" encoding="UTF-8"?>
<svg width="10px" height="16px" viewBox="0 0 10 16" version="1.1" xmlns="http://www.w3.org/2000/svg" xmlns:xlink="http://www.w3.org/1999/xlink">
    <!-- Generator: Sketch 49.3 (51167) - http://www.bohemiancoding.com/sketch -->
    <title>助手_icon</title>
    <desc>Created with Sketch.</desc>
    <defs></defs>
    <g id="Page-1" stroke="none" stroke-width="1" fill="none" fill-rule="evenodd">
        <g id="Bison-遊戲_助手下拉菜單" transform="translate(-276.000000, -13.000000)">
            <g id="icon_助手" transform="translate(271.000000, 11.000000)">
                <g id="Group-5">
                    <rect id="Rectangle-2" x="0" y="0" width="20" height="20"></rect>
                    <g id="Page-1" transform="translate(5.000000, 2.000000)" fill="#FFFFFF">
                        <path d="M8.71693188,6.329029 C8.41922066,7.1041975 7.97727349,7.82326828 7.62002003,8.57701764 C7.33668108,9.17624329 7.09132598,9.79331822 6.80747373,10.3925439 C6.75614421,10.5016794 6.60985508,10.6220345 6.49487695,10.634784 C6.18946631,10.6684427 5.87789612,10.6465135 5.49446461,10.6465135 C5.49446461,9.30271815 5.48984495,8.02063026 5.50113744,6.73854236 C5.50267733,6.61512737 5.59404387,6.4866126 5.66179884,6.3708473 C5.90766724,5.95419423 5.84453193,5.47583367 5.49805767,5.19840495 C5.13413137,4.90720678 4.6398281,4.93933548 4.31491223,5.27643178 C4.00077557,5.60128858 3.99615591,6.08474893 4.2974602,6.4570338 C4.37086141,6.54883007 4.48224647,6.6538858 4.48327306,6.75384174 C4.49559214,8.0343997 4.49148578,9.31444768 4.49148578,10.6460036 C4.12653289,10.6460036 3.80264362,10.659773 3.48183412,10.6373339 C3.38584792,10.6312142 3.25444435,10.5429877 3.21286744,10.4573112 C2.71907745,9.43072295 2.22118111,8.40566461 1.7617819,7.36377695 C1.48357591,6.73293259 1.15147391,6.0903587 1.05035476,5.42279583 C0.684375277,2.98917473 2.69392599,0.855931421 5.1633892,0.974246613 C7.91516477,1.10633125 9.70040548,3.76893304 8.71693188,6.329029 Z M3.30372069,12.1749214 L6.69608867,12.1749214 L6.69608867,11.6297536 L3.30372069,11.6297536 L3.30372069,12.1749214 Z M4.97346998,14.5412253 C4.2548567,14.5218461 3.65738108,14.0766341 3.39252076,13.3366542 L6.63603313,13.3366542 C6.30906409,14.1266121 5.69054337,14.5600945 4.97346998,14.5412253 Z M4.14295834,0.0598537727 C1.5379852,0.435198519 -0.380712265,3.07587121 0.0643146743,5.64922663 C0.266552983,6.82166898 0.861975417,7.81867846 1.44764524,8.81874782 C2.04871392,9.84482612 2.48244837,10.9015032 2.31100777,12.1208636 C2.31100777,12.3687136 2.30998118,12.6165635 2.31100777,12.8639034 C2.31716731,14.3367236 3.49569309,15.4964164 4.98938213,15.4999863 C6.49487695,15.5045761 7.67596921,14.3550828 7.68007557,12.8807327 C7.68110216,12.4472504 7.70676692,12.0117281 7.67442932,11.5807956 C7.62207321,10.8887537 7.81866528,10.2716788 8.13896148,9.67296311 C8.59887398,8.81313805 9.06289284,7.95484293 9.48225502,7.07665862 C9.84566802,6.31525956 10.0597121,5.50133264 9.98528432,4.64915727 C9.71939741,1.61733048 7.17242662,-0.376688487 4.14295834,0.0598537727 Z" id="Fill-1"></path>
                    </g>
                </g>
            </g>
        </g>
    </g>
</svg>