<?xml version="1.0" encoding="UTF-8"?>
<svg width="24px" height="24px" viewBox="0 0 24 24" version="1.1" xmlns="http://www.w3.org/2000/svg" xmlns:xlink="http://www.w3.org/1999/xlink">
    <!-- Generator: Sketch 49.3 (51167) - http://www.bohemiancoding.com/sketch -->
    <title>icon_圖片</title>
    <desc>Created with Sketch.</desc>
    <defs></defs>
    <g id="icon_圖片" stroke="none" stroke-width="1" fill="none" fill-rule="evenodd">
        <path d="M21.3076923,18.6384616 C21.3076923,19.5692308 20.5461538,20.3307693 19.6153846,20.3307693 L4.38461538,20.3307693 C3.45384615,20.3307693 2.69230769,19.5692308 2.69230769,18.6384616 L2.69230769,16.9343077 L6.02530769,13.6106154 C6.52115385,13.1156154 7.32415385,13.1164616 7.81915385,13.6114616 L9.67223077,15.4645385 C10.0166154,15.8089231 10.5801538,15.792 10.9042308,15.4264616 L15.7603077,9.93915387 C16.301,9.32738464 17.2706923,9.37900002 17.7445385,10.0432308 L21.3076923,15.0465385 L21.3076923,18.6384616 Z M7.34615385,7.63846156 C8.51469231,7.63846156 9.46153846,8.58530772 9.46153846,9.75384618 C9.46153846,10.9223846 8.51469231,11.8692308 7.34615385,11.8692308 C6.17761538,11.8692308 5.23076923,10.9223846 5.23076923,9.75384618 C5.23076923,8.58530772 6.17761538,7.63846156 7.34615385,7.63846156 Z M20.4615385,2 L3.53846154,2 C2.14230769,2 1,3.35 1,5 L1,19 C1,20.65 2.14230769,22 3.53846154,22 L20.4615385,22 C21.8576923,22 23,20.65 23,19 L23,5 C23,3.35 21.8576923,2 20.4615385,2 Z" id="picture" fill="#999999" opacity="0.98999995"></path>
        <rect id="Rectangle-2" x="0" y="0" width="24" height="24"></rect>
    </g>
</svg>