<?xml version="1.0" encoding="UTF-8"?>
<svg width="24px" height="24px" viewBox="0 0 24 24" version="1.1" xmlns="http://www.w3.org/2000/svg" xmlns:xlink="http://www.w3.org/1999/xlink">
    <!-- Generator: Sketch 49.3 (51167) - http://www.bohemiancoding.com/sketch -->
    <title>icon_貼圖</title>
    <desc>Created with Sketch.</desc>
    <defs></defs>
    <g id="icon_貼圖" stroke="none" stroke-width="1" fill="none" fill-rule="evenodd">
        <path d="M12,18.5 C9.209,18.5 6.807,16.863 5.683,14.5 L18.317,14.5 C17.193,16.863 14.791,18.5 12,18.5 M8.25,7 C9.078,7 9.75,7.671 9.75,8.5 C9.75,9.329 9.078,10 8.25,10 C7.421,10 6.75,9.329 6.75,8.5 C6.75,7.671 7.421,7 8.25,7 M15.75,7 C16.578,7 17.25,7.671 17.25,8.5 C17.25,9.329 16.578,10 15.75,10 C14.921,10 14.25,9.329 14.25,8.5 C14.25,7.671 14.921,7 15.75,7 M12,1 C5.925,1 1,5.925 1,12 C1,18.075 5.925,23 12,23 C18.075,23 23,18.075 23,12 C23,5.925 18.075,1 12,1" id="Fill-1" fill="#999999"></path>
        <rect id="Rectangle" x="0" y="0" width="24" height="24"></rect>
    </g>
</svg>