<?xml version="1.0" encoding="UTF-8"?>
<svg width="24px" height="24px" viewBox="0 0 24 24" version="1.1" xmlns="http://www.w3.org/2000/svg" xmlns:xlink="http://www.w3.org/1999/xlink">
    <!-- Generator: Sketch 49.3 (51167) - http://www.bohemiancoding.com/sketch -->
    <title>icon_register</title>
    <desc>Created with Sketch.</desc>
    <defs>
        <linearGradient x1="50%" y1="0%" x2="50%" y2="100%" id="linearGradient-1">
            <stop stop-color="#46D66A" offset="0%"></stop>
            <stop stop-color="#22AC38" offset="100%"></stop>
        </linearGradient>
    </defs>
    <g id="icon_register" stroke="none" stroke-width="1" fill="none" fill-rule="evenodd">
        <path d="M13.3522949,11.6102857 C13.1354321,12.2017143 13,12.8317143 13,13.4951429 C13,16.4154286 15.2877737,18.782 18.1635627,18.962 C18.2775657,18.9697143 18.3864256,18.9954286 18.5021429,18.9954286 C21.5365074,18.9954286 24,16.5328571 24,13.4951429 C24,10.4625714 21.5365074,8 18.5021429,8 C16.130367,8 14.1254578,9.50857143 13.3522949,11.6102857 Z" id="Path" fill-opacity="0.7" fill="url(#linearGradient-1)"></path>
        <path d="M17.9818627,16.7534507 C17.6253335,16.9805935 17.1579796,16.9240221 16.8667425,16.6180221 L15.2407481,14.8848792 C14.9074147,14.5360221 14.9220196,13.9771649 15.2733941,13.6454507 C15.6239096,13.3111649 16.1806106,13.3274507 16.5156622,13.6780221 C16.5156622,13.6780221 16.9732717,14.1837364 17.6416566,14.8848792 C18.4578078,14.3594507 21.2446515,11.477283 21.2446515,11.477283 C21.7037684,11.0612779 22.2351439,11.1977008 22.4963123,11.6048437 C22.7583398,12.0119865 22.6332821,12.5315996 22.1982598,12.9507116 L17.9818627,16.7534507 Z" id="Path" fill-opacity="0.9" fill="#FFFFFF"></path>
        <path d="M5.53760901,12.3526274 C4.02238983,11.4935839 3,9.86618791 3,8 C3,5.23857625 5.23857625,3 8,3 C10.7614237,3 13,5.23857625 13,8 C13,9.7152866 12.1362677,11.2288377 10.8200091,12.1294472 C10.9546792,12.167467 11.0879164,12.2087768 11.2197064,12.2532054 C11.0762755,12.811575 11,13.3968799 11,14 C11,17.5399556 13.6276854,20.4661823 17.0389462,20.9345703 L17.0389462,22 L0,22 L0,20.2686441 C0,16.6416471 2.30407747,13.551301 5.53760901,12.3526274 Z" id="Combined-Shape" fill="url(#linearGradient-1)"></path>
    </g>
</svg>