<?xml version="1.0" encoding="UTF-8"?>
<svg width="32px" height="32px" viewBox="0 0 32 32" version="1.1" xmlns="http://www.w3.org/2000/svg" xmlns:xlink="http://www.w3.org/1999/xlink">
    <!-- Generator: Sketch 49.3 (51167) - http://www.bohemiancoding.com/sketch -->
    <title>icon_bank</title>
    <desc>Created with Sketch.</desc>
    <defs>
        <linearGradient x1="50%" y1="0%" x2="50%" y2="100%" id="linearGradient-1">
            <stop stop-color="#FBB649" offset="0%"></stop>
            <stop stop-color="#F59223" offset="100%"></stop>
        </linearGradient>
    </defs>
    <g id="icon_bank" stroke="none" stroke-width="1" fill="none" fill-rule="evenodd">
        <g id="Group-3" fill="url(#linearGradient-1)">
            <path d="M29.9213217,26.9996952 C30.2119979,26.9996952 30.4651365,27.0988331 30.6788124,27.297109 C30.8924883,27.4944223 30.9983637,27.7283108 30.9983637,27.9987744 L30.9983637,29.9998203 L1,29.9998203 L1,27.9987744 C1,27.7283108 1.10683795,27.4944223 1.32051385,27.297109 C1.53322724,27.0988331 1.78732831,26.9996952 2.07800454,26.9996952 L29.9213217,26.9996952 Z M15.9996631,2.0005775 L30.9993262,7.99986525 L30.9993262,9.99994867 L28.9992428,9.99994867 C28.9992428,10.2713748 28.8933674,10.5052633 28.6796915,10.7025766 C28.4660156,10.89989 28.212877,10.9990279 27.9222008,10.9990279 L4.07808795,10.9990279 C3.78644923,10.9990279 3.53427317,10.89989 3.31963476,10.7025766 C3.10692137,10.5043008 3.00008342,10.2704123 3.00008342,9.99994867 L1,9.99994867 L1,7.99986525 L15.9996631,2.0005775 Z" id="Page-1"></path>
            <path d="M5.00016683,12.0000321 L8.99937116,12.0000321 L8.99937116,23.9986076 L10.9994546,23.9986076 L10.9994546,12.0000321 L14.9996214,12.0000321 L14.9996214,23.9986076 L16.9997048,23.9986076 L16.9997048,12.0000321 L21.0008342,12.0000321 L21.0008342,23.9986076 L23.0009176,23.9986076 L23.0009176,12.0000321 L27.0010844,12.0000321 L27.0010844,23.9986076 L27.9222008,23.9986076 C28.212877,23.9986076 28.4660156,24.098708 28.6796915,24.2950588 C28.8933674,24.4942972 28.9992428,24.7291482 28.9992428,24.9996118 L28.9992428,25.998691 L3.00008342,25.998691 L3.00008342,24.9996118 C3.00008342,24.7291482 3.10692137,24.4942972 3.32059727,24.2950588 C3.53523567,24.098708 3.78644923,23.9986076 4.07905046,23.9986076 L5.00112934,23.9986076 L5.00112934,12.0000321 L5.00016683,12.0000321 Z" id="Path" fill-opacity="0.6"></path>
        </g>
    </g>
</svg>