<?xml version="1.0" encoding="UTF-8"?>
<svg width="32px" height="32px" viewBox="0 0 32 32" version="1.1" xmlns="http://www.w3.org/2000/svg" xmlns:xlink="http://www.w3.org/1999/xlink">
    <!-- Generator: Sketch 49.3 (51167) - http://www.bohemiancoding.com/sketch -->
    <title>iocn_wechat wallet</title>
    <desc>Created with Sketch.</desc>
    <defs>
        <linearGradient x1="50%" y1="0%" x2="50%" y2="100%" id="linearGradient-1">
            <stop stop-color="#46D66A" offset="0%"></stop>
            <stop stop-color="#22AC38" offset="100%"></stop>
        </linearGradient>
    </defs>
    <g id="iocn_wechat-wallet" stroke="none" stroke-width="1" fill="none" fill-rule="evenodd">
        <g>
            <path d="M31,15.4999 C31,15.1139 30.972,14.7339 30.931,14.3579 C30.922,14.2809 30.915,14.2039 30.905,14.1269 C30.858,13.7709 30.794,13.4199 30.712,13.0739 C30.693,12.9909 30.669,12.9089 30.647,12.8259 C30.566,12.5159 30.473,12.2099 30.365,11.9089 C30.343,11.8489 30.324,11.7869 30.301,11.7269 C30.182,11.4149 30.044,11.1089 29.897,10.8079 C29.847,10.7059 29.797,10.6029 29.744,10.5009 C29.603,10.2319 29.455,9.9669 29.292,9.7079 L29.287,9.7099 C28.978,9.2179 28.628,8.7479 28.246,8.2969 L28.252,8.2939 C28.207,8.2389 28.15,8.1919 28.103,8.1379 C27.843,7.8409 27.57,7.5549 27.28,7.2789 C27.182,7.1849 27.082,7.0949 26.98,7.0039 C26.699,6.7509 26.405,6.5099 26.1,6.2779 C25.993,6.1959 25.889,6.1129 25.779,6.0339 C25.422,5.7779 25.051,5.5369 24.666,5.3089 C24.603,5.2719 24.544,5.2299 24.48,5.1929 C24.021,4.9309 23.545,4.6889 23.051,4.4689 C22.966,4.4309 22.875,4.3999 22.789,4.3639 C22.39,4.1939 21.982,4.0379 21.563,3.8979 C21.397,3.8429 21.228,3.7949 21.059,3.7449 C20.703,3.6379 20.342,3.5419 19.974,3.4579 C19.785,3.4149 19.597,3.3729 19.406,3.3359 C19.026,3.2629 18.641,3.2049 18.25,3.1559 C18.075,3.1339 17.901,3.1059 17.724,3.0889 C17.157,3.0349 16.584,2.9999 16,2.9999 C14.447,2.9999 12.949,3.1969 11.54,3.5619 C10.13,3.9269 8.811,4.4609 7.613,5.1349 C6.417,5.8089 5.342,6.6229 4.425,7.5489 C4.394,7.5809 4.368,7.6159 4.336,7.6479 C2.253,9.7939 1,12.5239 1,15.4999 C1,15.5009 1,15.5029 1,15.5039 C1,15.9579 1.033,16.4049 1.09,16.8459 C1.105,16.9649 1.135,17.0809 1.155,17.1989 C1.208,17.5229 1.266,17.8449 1.348,18.1609 C1.381,18.2849 1.424,18.4039 1.461,18.5269 C1.553,18.8329 1.652,19.1379 1.77,19.4349 C1.816,19.5489 1.869,19.6599 1.918,19.7729 C2.049,20.0719 2.189,20.3669 2.346,20.6549 C2.403,20.7589 2.464,20.8599 2.524,20.9629 C2.692,21.2499 2.871,21.5319 3.064,21.8059 C3.132,21.9029 3.202,21.9989 3.273,22.0939 C3.475,22.3619 3.687,22.6239 3.911,22.8779 C3.993,22.9709 4.075,23.0639 4.16,23.1549 C4.385,23.3969 4.623,23.6309 4.87,23.8589 C4.97,23.9519 5.069,24.0459 5.172,24.1359 C5.413,24.3459 5.666,24.5449 5.924,24.7409 C6.012,24.8079 6.092,24.8829 6.183,24.9489 C6.437,25.1299 6.603,25.4279 6.603,25.7639 C6.603,25.8749 6.579,25.9759 6.55,26.0819 C6.297,27.0239 5.893,28.5329 5.874,28.6039 C5.843,28.7219 5.793,28.8449 5.793,28.9689 C5.793,29.2449 6.018,29.4689 6.294,29.4689 C6.402,29.4689 6.491,29.4289 6.583,29.3759 L9.866,27.4799 C10.113,27.3369 10.375,27.2499 10.663,27.2499 C10.816,27.2499 10.964,27.2729 11.104,27.3149 C11.165,27.3329 11.229,27.3449 11.29,27.3619 C11.497,27.4189 11.706,27.4689 11.917,27.5189 C12.152,27.5749 12.388,27.6249 12.628,27.6709 C12.828,27.7089 13.027,27.7469 13.229,27.7779 C13.519,27.8239 13.812,27.8579 14.106,27.8899 C14.265,27.9069 14.422,27.9279 14.582,27.9399 C15.05,27.9779 15.522,28.0009 16,28.0009 C24.284,28.0009 31,22.4039 31,15.4999 Z" id="Fill-1" fill="url(#linearGradient-1)"></path>
            <path d="M13.0981,15.0389 C12.9381,15.0969 12.7651,15.1309 12.5851,15.1309 C12.2831,15.1309 12.0011,15.0399 11.7661,14.8859 L8.5441,12.5919 C8.4601,12.5299 8.3571,12.4929 8.2441,12.4929 C7.9681,12.4929 7.7441,12.7169 7.7441,12.9929 C7.7441,13.0649 7.7631,13.1379 7.7921,13.2039 L10.5231,19.1959 L10.5881,19.3389 C10.7601,19.6439 11.0861,19.8509 11.4611,19.8509 C11.6231,19.8509 11.7751,19.8109 11.9111,19.7429 L12.0201,19.6799 L29.2871,9.7099 C28.9771,9.2179 28.6281,8.7469 28.2461,8.2969 L13.0981,15.0389 Z" id="Fill-4" fill-opacity="0.85" fill="#FFFFFF"></path>
        </g>
    </g>
</svg>