<svg xmlns="http://www.w3.org/2000/svg" xmlns:xlink="http://www.w3.org/1999/xlink" viewBox="0 0 35 35"><defs><style>.cls-1{fill:url(#未命名漸層_210);}.cls-2{fill:url(#未命名漸層_210-2);}.cls-3{fill:url(#未命名漸層_210-3);}.cls-4{fill:url(#未命名漸層_210-4);}</style><linearGradient id="未命名漸層_210" x1="21.51" y1="0.33" x2="21.28" y2="38.06" gradientUnits="userSpaceOnUse"><stop offset="0" stop-color="#ffa199"/><stop offset="0.36" stop-color="#ff9492"/><stop offset="1" stop-color="#ff8187"/></linearGradient><linearGradient id="未命名漸層_210-2" x1="21.6" y1="0.33" x2="21.36" y2="38.06" xlink:href="#未命名漸層_210"/><linearGradient id="未命名漸層_210-3" x1="21.55" y1="1.33" x2="21.33" y2="36.39" xlink:href="#未命名漸層_210"/><linearGradient id="未命名漸層_210-4" x1="8.55" y1="-52.71" x2="7.35" y2="137.02" xlink:href="#未命名漸層_210"/></defs><title>工作區域 70</title><g id="圖層_2" data-name="圖層 2"><path class="cls-1" d="M28.8,3.49H14.14a1.71,1.71,0,0,0-1.7,1.7V9.82h0a12,12,0,0,0,5.86,3.59,3.37,3.37,0,0,1,6.34,0A12.07,12.07,0,0,0,30.5,9.82h0V5.19A1.71,1.71,0,0,0,28.8,3.49Z"/><path class="cls-2" d="M30.46,11a12.05,12.05,0,0,1-5.65,3.41,3.35,3.35,0,0,1-6.69,0A12.07,12.07,0,0,1,12.48,11h0V29.84a1.68,1.68,0,0,0,1.7,1.65H28.8a1.68,1.68,0,0,0,1.7-1.65V11Z"/><ellipse class="cls-3" cx="21.47" cy="14.44" rx="2.36" ry="2.29"/><path class="cls-4" d="M11.57,29.84v-24l-6,1.41A1.44,1.44,0,0,0,4.54,9l.53,2.1.44,1.77.26,1,3,11.86,1,3.85a1.47,1.47,0,0,0,1.77,1l.2-.05A2.48,2.48,0,0,1,11.57,29.84Z"/></g></svg>