<svg xmlns="http://www.w3.org/2000/svg" xmlns:xlink="http://www.w3.org/1999/xlink" viewBox="0 0 35 35"><defs><style>.cls-1{fill:url(#未命名漸層_239);}.cls-2{fill:url(#未命名漸層_239-2);}</style><linearGradient id="未命名漸層_239" x1="5.81" y1="23.73" x2="29.19" y2="23.73" gradientUnits="userSpaceOnUse"><stop offset="0" stop-color="#a0dafc"/><stop offset="1" stop-color="#72b9f7"/></linearGradient><linearGradient id="未命名漸層_239-2" x1="3.5" y1="9.24" x2="31.5" y2="9.24" xlink:href="#未命名漸層_239"/></defs><title>工作區域 70 複本</title><g id="圖層_2" data-name="圖層 2"><path class="cls-1" d="M24.37,20.89l-1.65-.36a.67.67,0,0,0-.72.39c-.25.47-.49.95-.76,1.46l-.15-.31L18.21,16H16.79l-2.88,6.11-.15.31c-.27-.51-.51-1-.76-1.46a.67.67,0,0,0-.72-.39l-1.65.36c.78-1.67,1.55-3.3,2.32-4.93H5.81V29.71a1.66,1.66,0,0,0,1.5,1.79H27.69a1.66,1.66,0,0,0,1.5-1.79V16H22.05C22.82,17.59,23.59,19.22,24.37,20.89Z"/><path class="cls-2" d="M30.24,9.78H25.09a5.25,5.25,0,0,0,.27-2.93c-.49-3-4.11-4.49-6.14-2.34a9.78,9.78,0,0,0-1.57,2.34,2.44,2.44,0,0,1-.14.28c-.32-.56-.6-1.1-.92-1.59Q14.75,2.72,12,3.82A4.16,4.16,0,0,0,9.56,8.25a12,12,0,0,0,.27,1.53H9.58v0H4.76A1.31,1.31,0,0,0,3.5,11.18v2.43A1.31,1.31,0,0,0,4.76,15H30.24a1.31,1.31,0,0,0,1.26-1.37V11.15A1.32,1.32,0,0,0,30.24,9.78ZM13.05,5.64a1.65,1.65,0,0,1,1.65.55,8.54,8.54,0,0,1,1.7,3.16c0,.12.08.24.13.43a11.7,11.7,0,0,1-3.6-.28,4.41,4.41,0,0,1-1.11-.59,1.25,1.25,0,0,1-.47-1.2A2.16,2.16,0,0,1,13.05,5.64Zm7.07.75A1.77,1.77,0,0,1,22.76,6a2.1,2.1,0,0,1,.89,1.8A1.31,1.31,0,0,1,23.1,9a3.51,3.51,0,0,1-1.81.7c-.66.06-1.33.08-2,.1h-.83A10,10,0,0,1,20.12,6.39Z"/></g></svg>