<svg xmlns="http://www.w3.org/2000/svg" xmlns:xlink="http://www.w3.org/1999/xlink" viewBox="0 0 35 35"><defs><style>.cls-1{fill:url(#未命名漸層_258);}.cls-2{fill:url(#未命名漸層_258-2);}.cls-3{fill:url(#未命名漸層_258-3);}</style><linearGradient id="未命名漸層_258" x1="21.88" y1="11.99" x2="52.92" y2="11.54" gradientUnits="userSpaceOnUse"><stop offset="0" stop-color="#d296e6"/><stop offset="1" stop-color="#ab7ee9"/></linearGradient><linearGradient id="未命名漸層_258-2" x1="11.89" y1="15.34" x2="76.31" y2="14.4" xlink:href="#未命名漸層_258"/><linearGradient id="未命名漸層_258-3" x1="6.63" y1="26.73" x2="32.53" y2="25.09" xlink:href="#未命名漸層_258"/></defs><title>工作區域 70 複本 2</title><g id="圖層_2" data-name="圖層 2"><path class="cls-1" d="M22.51,18.94c0-.43,0-.85,0-1.28a.86.86,0,0,1,.33-.62,7,7,0,0,0,.92-1.28,6.42,6.42,0,0,0,.43-1.28.75.75,0,0,1,.6-.63.58.58,0,0,0,.14,0c.51-.24.73-1.58.3-1.92a.65.65,0,0,1-.26-.78,11.36,11.36,0,0,0,.52-4c-.16-2.21-1.61-3.62-4.13-4a8.29,8.29,0,0,0-3.1,0A5,5,0,0,1,20.36,7a12,12,0,0,1-.51,4.17,2.07,2.07,0,0,1,.46,1.71,2.34,2.34,0,0,1-1.12,1.86,1,1,0,0,1-.2.07v0a5.66,5.66,0,0,1-.49,1.39,7.79,7.79,0,0,1-1.06,1.48l-.06.07v.29c0,.49,0,1,0,1.53a1.42,1.42,0,0,0,0,.19l0,.16v.12c.06.23.69.82,2.84.93A7.4,7.4,0,0,1,22.51,18.94Z"/><path class="cls-2" d="M18.82,25.49A7.69,7.69,0,0,1,19.64,22c-3.41-.34-3.25-2-3.25-2a2.73,2.73,0,0,1,0-.52c0-.63,0-1.27,0-1.9a.93.93,0,0,1,.33-.62,7.07,7.07,0,0,0,.93-1.28A5.82,5.82,0,0,0,18,14.48a.76.76,0,0,1,.61-.63.61.61,0,0,0,.13,0c.52-.24.74-1.58.31-1.92a.67.67,0,0,1-.27-.78,11.37,11.37,0,0,0,.53-4c-.16-2.21-1.61-3.62-4.14-4A8.25,8.25,0,0,0,12,3.18a2,2,0,0,0-1.17.67.81.81,0,0,1-.47.26A2.81,2.81,0,0,0,7.67,6.94,9.34,9.34,0,0,0,8.29,11a.65.65,0,0,1-.26.89.47.47,0,0,0-.13.15,1.78,1.78,0,0,0,.4,1.72.54.54,0,0,0,.19.07.71.71,0,0,1,.61.62A5,5,0,0,0,10,16.64c.08.11.14.24.26.3a1,1,0,0,1,.48,1c0,.69,0,1.39-.06,2.08a1.43,1.43,0,0,1-.12.55.3.3,0,0,1,0,.08h0c-.34.59-1.32,1.37-4.2,1.4-3.56,0-3.77,5.16-3.82,5.39l0,.06H19.1A7.76,7.76,0,0,1,18.82,25.49Z"/><path class="cls-3" d="M26.17,19a6.51,6.51,0,1,0,6.33,6.51A6.43,6.43,0,0,0,26.17,19Zm3.89,7.07a.31.31,0,0,1-.31.31H27v2.81a.31.31,0,0,1-.31.32H25.63a.31.31,0,0,1-.31-.32V26.36H22.59a.31.31,0,0,1-.31-.31V24.94a.31.31,0,0,1,.31-.32h2.73V21.81a.31.31,0,0,1,.31-.31h1.08a.31.31,0,0,1,.31.31v2.81h2.73a.31.31,0,0,1,.31.32Z"/></g></svg>