<?xml version="1.0" encoding="UTF-8"?>
<svg width="140px" height="126px" viewBox="0 0 140 126" version="1.1" xmlns="http://www.w3.org/2000/svg" xmlns:xlink="http://www.w3.org/1999/xlink">
    <!-- Generator: Sketch 49.3 (51167) - http://www.bohemiancoding.com/sketch -->
    <title>活動-紅包-bg-flower</title>
    <desc>Created with Sketch.</desc>
    <defs>
        <polygon id="path-1" points="0.0199322034 0.178297083 38.8794237 0.178297083 38.8794237 18.7223225 0.0199322034 18.7223225"></polygon>
    </defs>
    <g id="活動-紅包-bg-flower" stroke="none" stroke-width="1" fill="none" fill-rule="evenodd" opacity="0.1">
        <g id="Group-19" transform="translate(0.000000, 0.300000)">
            <path d="M25.9650169,51.878109 C23.4687458,53.9255339 21.8184068,55.2801131 20.1075593,56.6837539 C22.0711186,58.9621274 24.0809492,61.0885295 25.8475593,63.405195 C27.7209492,65.8582756 27.2202712,67.3540565 24.1390847,67.8315098 C21.9690847,68.1677613 20.8645085,69.0855725 19.9841695,71.0241045 C17.0916271,77.3877548 9.69179661,78.037522 6.26298305,71.8342195 C3.88891525,67.54073 2.51145763,62.5364454 1.48637288,57.6793457 C0.657050847,53.7448436 1.02366102,49.5554605 0.844508475,45.4797567 C0.744847458,43.2217258 0.861118644,41.1731043 3.53654237,40.3031581 C6.40891525,39.3697909 9.28959322,38.8229334 11.4085763,41.4842267 C12.9438305,43.4131858 15.0117966,43.6525107 16.9278983,44.5966476 C20.1372203,46.1749956 22.683322,49.1234789 25.9650169,51.878109" id="Fill-1" fill="#C19353"></path>
            <path d="M42.5648644,104.508536 C37.8107966,106.59545 33.1528305,108.969553 28.2599492,110.636451 C26.213339,111.334083 23.413339,111.151 21.3916441,110.307379 C15.0252034,107.649676 8.84384746,104.530075 2.64588136,101.472699 C1.81418644,101.062257 0.800966102,100.031963 0.72740678,99.2110784 C0.332322034,94.7045897 -0.244288136,90.1370732 0.111644068,85.6605001 C0.454525424,81.3478646 3.65198305,78.9055536 7.55181356,78.7823012 C12.1694407,78.636313 13.7818136,80.2134644 13.2645254,84.7618349 C12.3652034,92.6583615 15.3657119,96.3595217 25.1016441,99.5844253 C29.7109661,101.110122 34.6180847,101.719204 39.3840169,102.765054 C40.3818136,102.984036 41.3582542,103.297552 42.3441864,103.567989 C42.4177458,103.881505 42.4913051,104.193824 42.5648644,104.508536" id="Fill-3" fill="#C19353"></path>
            <path d="M114.765,101.554309 C113.752966,110.457197 108.303644,116.25245 98.8785593,117.833192 C94.4495763,118.578689 89.8770339,118.676812 85.375678,118.63134 C83.9839831,118.615784 82.1711017,117.484974 81.3097458,116.301512 C79.1373729,113.32431 77.2094068,110.116159 75.6017797,106.795525 C75.1663559,105.894467 75.8378814,103.859008 76.6755085,103.060859 C77.9461864,101.846285 80.0224576,100.121949 81.6075424,102.279464 C85.7221186,107.879667 90.4583898,105.592917 94.9621186,103.486858 C97.825,102.149031 100.278559,99.9161297 102.558898,98.3329952 C106.674661,99.4183338 110.613644,100.458201 114.765,101.554309" id="Fill-8" fill="#C19353"></path>
            <path d="M21.5089831,41.5992224 C19.4208475,38.482015 16.7359322,35.5909697 15.4616949,32.1662297 C14.640678,29.9572605 15.4747458,26.8209071 16.3052542,24.3546636 C17.7764407,19.9857867 19.95,15.8646112 21.5422034,11.5328297 C22.2505085,9.60746054 22.9220339,8.62503164 25.1976271,8.709992 C30.0750847,8.89307558 34.9655932,8.6956325 39.8501695,8.68366625 C44.9755932,8.66930676 46.7184746,11.1128144 45.3505085,16.0572678 C43.8354237,21.5306292 40.88,25.0881945 34.819661,25.4711144 C31.2662712,25.6960799 27.7105085,26.291999 24.2342373,27.0733949 C23.2269492,27.3007536 21.7759322,28.7319168 21.7533898,29.6413516 C21.6620339,33.4358485 22.0369492,37.2411152 22.2410169,41.0439885 C21.9966102,41.2282687 21.7533898,41.4137455 21.5089831,41.5992224" id="Fill-10" fill="#C19353"></path>
            <path d="M118.573475,98.6024751 C115.189746,97.9527079 111.770424,97.4477322 108.437712,96.5909489 C106.764831,96.1613607 104.037203,95.9519513 104.756186,93.2368098 C105.430085,90.6915891 107.006864,88.4251819 110.186525,88.373727 C110.540085,88.3677439 110.89839,88.4323616 111.250763,88.4874063 C118.845169,89.6816378 121.02822,88.9146014 124.415508,82.01247 C127.462288,75.8007911 129.829237,69.2432876 132.338559,62.7767276 C132.963814,61.1636775 133.543983,59.5697734 135.428051,60.2781752 C136.887373,60.8262294 138.979068,62.0922583 139.120254,63.2481978 C139.391949,65.4523805 138.846186,67.9664891 137.959915,70.0593857 C136.565847,73.348907 134.430254,76.3141431 132.962627,79.5785353 C132.205678,81.2609897 131.550763,83.4771386 132.005169,85.130874 C133.097881,89.1048647 130.732119,91.179812 128.441102,93.3947643 C125.689746,96.0572543 122.944322,98.8406034 118.573475,98.6024751" id="Fill-12" fill="#C19353"></path>
            <path d="M41.5695593,49.5829828 C38.4515932,49.7301677 34.6893898,50.0676158 30.9378644,49.9742791 C29.975661,49.9515432 28.6824407,48.7644915 28.1592203,47.7796694 C25.2749831,42.3398134 24.3815932,36.4943017 25.2192203,29.8709839 C29.4571864,29.3289129 33.7615932,28.4805059 38.0921017,28.3034055 C43.135661,28.097586 47.0924407,31.7042129 47.7188814,36.6630258 C47.8292203,37.548528 47.0710847,38.5824118 46.6190508,39.4990263 C45.0173559,42.7514523 43.375322,45.9847323 41.5695593,49.5829828" id="Fill-14" fill="#C19353"></path>
            <path d="M77.8614746,85.5401197 C86.5165593,89.0833255 91.1863898,85.3773787 95.1004576,79.4134011 C96.9667288,76.5690242 102.259441,75.0540973 104.374864,76.6073161 C107.289949,78.7480778 106.480797,82.0866607 105.955203,84.9250546 C104.901644,90.618595 94.6685932,99.9319251 88.9891017,101.030427 C86.0965593,101.590447 83.8375763,100.748023 82.6831695,98.2147687 C80.983,94.4824962 79.733678,90.542011 77.8614746,85.5401197" id="Fill-16" fill="#C19353"></path>
            <path d="M126.549559,50.6954848 C128.916508,56.0108918 130.93939,60.3761788 128.529729,65.4654237 C126.277864,70.2208104 124.397356,75.1616738 122.007864,79.8416731 C119.337186,85.0733164 117.804305,85.597438 111.595661,84.3577348 C111.948034,82.87751 112.394136,81.4212177 112.629051,79.9314199 C113.007525,77.5094515 113.690915,75.1221852 111.163797,73.1022827 C110.485153,72.5590151 110.775831,70.3009842 111.174475,69.0014498 C111.615831,67.5631069 113.261424,66.3760551 113.395492,64.983184 C114.169051,56.9526355 121.27939,55.2977035 126.549559,50.6954848" id="Fill-18" fill="#C19353"></path>
            <path d="M113.416373,42.0246225 C108.468915,37.5803583 103.545186,33.576452 99.1553559,29.0448341 C96.8204407,26.6360286 94.9577288,23.487709 93.7641695,20.3322096 C93.103322,18.5887274 93.6051864,15.5469073 94.804678,14.1983113 C95.8345085,13.0435684 98.5989153,13.3403313 100.606373,13.2481912 C101.491458,13.207506 102.39078,13.9781323 103.310271,14.0595028 C104.933322,14.2030978 106.576542,14.0989914 108.866373,14.0989914 C111.858576,22.8774303 118.179932,31.8772449 113.416373,42.0246225" id="Fill-20" fill="#C19353"></path>
            <path d="M55.1603559,86.9249734 C53.1030678,93.7146221 44.7920508,99.8042453 38.3769661,98.6016374 C32.2430678,97.4528777 26.2444237,95.2546781 20.4249322,92.9128835 C18.7461186,92.2367906 17.2535763,89.6269521 16.7932373,87.640555 C15.8251017,83.4523685 18.4174746,81.298444 22.529678,82.45917 C27.9149322,83.9764901 33.1969661,86.0095555 38.6688305,87.0386528 C42.8818814,87.8308184 47.3191695,87.4526849 51.6579831,87.5089263 C52.6735763,87.5220892 53.6939153,87.1810511 55.1603559,86.9249734" id="Fill-22" fill="#C19353"></path>
            <path d="M114.637576,20.5356358 C118.272831,19.693212 121.402661,18.9680574 125.045034,18.1232403 C127.898424,21.0286452 129.610458,25.1378544 129.704186,29.8728985 C129.794356,34.440415 129.691136,39.012718 129.589102,43.5814312 C129.571305,44.3388947 129.360119,45.4577388 128.849949,45.7784342 C125.53622,47.8557747 122.19639,49.9331152 118.671475,51.5940303 C117.799441,52.0056692 115.78961,51.2254699 115.075373,50.3507373 C114.380119,49.4999371 114.052661,47.306524 114.635203,46.592139 C120.675373,39.1910151 119.786729,31.5685157 115.838254,23.6971183 C115.262831,22.5507518 114.917576,21.2859195 114.637576,20.5356358" id="Fill-24" fill="#C19353"></path>
            <path d="M101.105864,38.2057143 C109.394339,43.0448647 113.760441,51.5935517 112.263153,59.2411803 C110.960441,65.8992002 104.171627,71.9948065 97.0589153,72.8970615 C100.172136,65.5318364 99.7806102,60.7549105 95.3409492,53.7749985 C101.511627,50.4782974 100.766542,44.1744784 101.105864,38.2057143" id="Fill-26" fill="#C19353"></path>
            <path d="M76.4895932,22.1366 C79.3951864,22.1366 82.7006102,22.0360835 85.9941695,22.2000211 C86.9421356,22.2466895 87.9992542,22.8832938 88.7585763,23.5414374 C95.564,29.4372074 99.5729831,36.30344 96.064678,45.6897643 C95.6494237,46.7978388 95.4287458,47.9789074 94.9731525,49.6565753 C93.2682373,47.4775216 91.8160339,45.6371128 90.3804407,43.7847378 C87.4119661,39.9555387 84.2204407,36.4960966 79.1887458,35.3940052 C76.7256949,34.8543275 76.4089153,32.796133 76.4706102,30.5859671 C76.5489153,27.8911683 76.4895932,25.1915829 76.4895932,22.1366" id="Fill-28" fill="#C19353"></path>
            <g id="Group-32" transform="translate(48.644068, 1.018328)">
                <mask id="mask-2" fill="white">
                    <use xlink:href="#path-1"></use>
                </mask>
                <g id="Clip-31"></g>
            </g>
            <path d="M58.6640339,86.7146068 C63.752678,87.7078053 68.9397966,89.3328217 74.3333559,85.1027533 C75.0855593,88.8170765 76.1592881,91.9833455 76.1936949,95.1627773 C76.212678,96.8165127 74.8008136,99.1248018 73.3509831,100.054579 C65.7589492,104.929628 59.1836949,105.010999 51.812339,98.090918 C53.1648814,96.2876046 54.6574237,94.5776278 55.821322,92.6654215 C56.9187797,90.856125 57.6709831,88.8338292 58.6640339,86.7146068" id="Fill-33" fill="#C19353"></path>
            <path d="M51.1294237,34.3400182 C48.4089153,29.8275464 46.6565424,25.6321801 49.8860339,20.7631141 C50.8055254,19.3786193 50.7568814,17.3395708 51.2812881,15.0264952 C57.5504407,17.820614 63.7899322,20.4041267 69.8419661,23.3741493 C73.3929831,25.1176315 73.8094237,27.9009806 72.044,34.2789903 C71.0355254,33.4868248 70.1326441,32.8490238 69.3104407,32.1166895 C66.0595932,29.2148745 62.9392542,32.0496785 59.8901017,31.997027 C56.5645085,31.939589 53.623322,30.3636342 51.1294237,34.3400182" id="Fill-35" fill="#C19353"></path>
            <path d="M54.1835593,68.6308551 C51.6576271,72.3200491 48.2632203,73.8481389 44.5591525,71.6870346 C38.8476271,68.3532382 33.4825424,64.3864272 28.1340678,60.4638914 C25.5938983,58.5995501 26.4089831,56.6933269 28.8138983,55.1089958 C33.3745763,52.1042711 39.4016949,52.7217295 42.8779661,56.9039329 C44.8415254,59.2684633 46.1916949,62.1738681 48.2655932,64.4163428 C49.8791525,66.1586284 52.1844068,67.2499502 54.1835593,68.6308551" id="Fill-37" fill="#C19353"></path>
            <path d="M57.4498305,69.4219437 C61.0186441,69.9496552 64.3822034,70.6077988 67.7754237,70.9117415 C72.3977966,71.3269702 74.8561017,72.9819022 75.0732203,76.2271485 C75.3247458,80.007286 72.6528814,82.7583262 68.2155932,83.4332225 C61.8064407,84.4096683 56.2633898,82.1719801 51.0857627,78.7304874 C50.3359322,78.2326915 49.4425424,76.5693831 49.6976271,76.1948396 C50.3561017,75.2303601 51.5579661,74.2048527 52.650678,74.0672409 C55.9762712,73.646029 58.2494915,72.6253081 57.4498305,69.4219437" id="Fill-39" fill="#C19353"></path>
            <path d="M93.7833898,65.5410504 C92.8722034,71.7730719 92.7037288,78.417929 85.6527119,81.498041 C81.7659322,83.1972481 80.1998305,82.260291 79.5188136,78.1283458 C78.2849153,70.6566211 82.0127119,65.1641136 86.6149153,60.178975 C87.6530508,59.0529512 90.1611864,58.5898574 91.7320339,58.9560246 C92.6752542,59.1762035 93.2245763,61.5538969 93.7383051,63.0365149 C93.9969492,63.7844053 93.7833898,64.7010199 93.7833898,65.5410504" id="Fill-41" fill="#C19353"></path>
            <path d="M50.5558983,84.5866491 C48.5531864,84.5866491 46.4828475,84.9252939 44.572678,84.5148516 C40.7487797,83.6927704 36.9853898,82.5428141 33.2457288,81.3701218 C29.6258983,80.2369182 26.0665763,78.9074682 22.4740339,77.6605852 C24.5965763,70.4628875 29.5072542,68.3005867 36.342339,71.5984844 C37.502678,72.1597014 38.8077627,72.4732171 40.0808136,72.7269015 C43.0006441,73.3084611 44.8692881,74.9454437 46.1553898,77.6928941 C47.2160678,79.9593013 48.8438644,81.9552713 50.5558983,84.5866491" id="Fill-43" fill="#C19353"></path>
            <path d="M69.8042373,47.3123874 C73.4062712,49.4064807 76.3925424,50.8376438 79.0288136,52.7558333 C82.050678,54.9540329 82.1598305,60.3771361 79.6398305,64.9661919 C77.5540678,68.7618855 73.7811864,70.431177 70.0949153,69.165148 C67.9984746,68.4435833 66.57,66.8628421 67.719661,64.8214003 C70.6916949,59.5442853 71.3038983,54.0326318 69.8042373,47.3123874" id="Fill-45" fill="#C19353"></path>
            <path d="M50.8548814,43.7167695 C54.3631864,34.7719997 57.1572542,33.5669986 66.4743729,36.4927461 C68.922,37.2609791 71.4906441,37.6283429 74.7165763,38.3379414 C72.2036949,40.8975216 70.2045424,43.7012134 67.5125085,45.3681116 C66.0686102,46.2607936 63.1725085,45.7390653 61.402339,44.8762988 C59.092339,43.7514716 57.2165763,42.5955321 54.572,43.9213923 C53.6465763,44.3856827 52.2145424,43.8232691 50.8548814,43.7167695" id="Fill-47" fill="#C19353"></path>
            <path d="M52.9010169,61.9991609 C46.3233898,58.1915011 43.809322,51.9905918 45.8974576,47.0449418 C49.0450847,47.0449418 52.0681356,47.0054532 55.0888136,47.0557114 C58.649322,47.1155427 59.6815254,48.2619091 58.3633898,51.4269815 C56.8779661,55.0024962 54.8242373,58.3374893 52.9010169,61.9991609" id="Fill-49" fill="#C19353"></path>
            <path d="M83.1066102,55.0612505 C82.1835593,50.0318368 79.369322,45.927414 72.7561017,45.1125125 C74.2177966,43.0303855 75.1930508,41.2522012 76.5586441,39.8653132 C77.1933898,39.2215291 78.9955932,38.7727948 79.5698305,39.1963999 C84.4176271,42.7874707 89.5822034,46.1392166 92.0155932,51.5084717 C89.0115254,52.706293 86.2079661,53.8239405 83.1066102,55.0612505" id="Fill-51" fill="#C19353"></path>
            <path d="M66.8196271,59.9109311 C66.321322,62.3257198 65.8230169,64.7381152 65.2179322,67.6650593 C62.3004746,66.0149138 59.5740339,64.4712679 55.7287797,62.2946076 C59.7970847,60.9208824 62.9411525,59.8594762 66.0864068,58.7968735 C66.3308136,59.1690238 66.5752203,59.5399774 66.8196271,59.9109311" id="Fill-53" fill="#C19353"></path>
            <path d="M67.8253729,51.8535782 C68.3924915,55.0485662 67.5584237,56.5407573 64.2150339,56.442634 C62.7474068,56.3995555 61.2477458,57.3951473 59.7931695,57.9084993 C59.3221525,53.5659482 61.3841864,51.8954601 67.8253729,51.8535782" id="Fill-55" fill="#C19353"></path>
            <path d="M87.2173898,17.6200596 C82.2912881,18.3200851 77.3675593,19.0368633 72.4367119,19.70099 C71.874339,19.7763774 71.1304407,19.768001 70.7151864,19.4628617 C64.3938305,14.8079916 57.5195932,11.439493 48.664,10.374497 C53.0799322,6.97847603 56.5668814,4.08264421 60.3089153,1.57212555 C61.2023051,0.972616571 63.5929831,1.11262166 64.1897627,1.83777624 C68.8797627,7.5384964 75.1856949,10.4869797 81.7597627,13.1398967 C83.774339,13.9524049 85.6073898,15.2196305 87.5234915,16.2774467 C87.4214576,16.7249844 87.3194237,17.172522 87.2173898,17.6200596" id="Fill-30" fill="#C19353"></path>
            <path d="M49.2571017,103.449762 C54.0799831,107.022884 60.5128644,107.858128 67.1545593,107.179642 C71.1350678,106.773986 72.7201525,109.320403 74.0952373,112.121702 C75.561678,115.113264 74.2993051,117.830798 71.6938814,119.194951 C67.180661,121.557088 62.3826949,123.366384 57.6772712,125.345602 C57.2038814,125.544241 56.4647288,125.490393 55.9996441,125.254658 C49.9618475,122.190102 43.8291356,119.284697 37.9811695,115.88389 C34.7338814,113.99442 35.050661,112.45197 38.3062542,110.420101 C41.8394746,108.214722 45.3359153,105.949512 49.2571017,103.449762" id="Fill-5" fill="#C19353"></path>
        </g>
    </g>
</svg>