<?xml version="1.0" encoding="UTF-8"?>
<svg width="27px" height="27px" viewBox="0 0 27 27" version="1.1" xmlns="http://www.w3.org/2000/svg" xmlns:xlink="http://www.w3.org/1999/xlink">
    <!-- Generator: Sketch 49.3 (51167) - http://www.bohemiancoding.com/sketch -->
    <title>icon_footer_finance_pressde</title>
    <desc>Created with Sketch.</desc>
    <defs></defs>
    <g id="icon_footer_finance_pressde" stroke="none" stroke-width="1" fill="none" fill-rule="evenodd">
        <path d="M20.2105263,10 L11.7894737,10 C11.3536842,10 11,9.552 11,9 C11,8.448 11.3536842,8 11.7894737,8 L20.2105263,8 C20.6463158,8 21,8.448 21,9 C21,9.552 20.6463158,10 20.2105263,10 M20.2105263,15 L11.7894737,15 C11.3536842,15 11,14.552 11,14 C11,13.448 11.3536842,13 11.7894737,13 L20.2105263,13 C20.6463158,13 21,13.448 21,14 C21,14.552 20.6463158,15 20.2105263,15 M20.2105263,20 L11.7894737,20 C11.3536842,20 11,19.552 11,19 C11,18.448 11.3536842,18 11.7894737,18 L20.2105263,18 C20.6463158,18 21,18.448 21,19 C21,19.552 20.6463158,20 20.2105263,20 M8.02173913,10 L6.97826087,10 C6.43826087,10 6,9.552 6,9 C6,8.448 6.43826087,8 6.97826087,8 L8.02173913,8 C8.56173913,8 9,8.448 9,9 C9,9.552 8.56173913,10 8.02173913,10 M8.02173913,15 L6.97826087,15 C6.43826087,15 6,14.552 6,14 C6,13.448 6.43826087,13 6.97826087,13 L8.02173913,13 C8.56173913,13 9,13.448 9,14 C9,14.552 8.56173913,15 8.02173913,15 M8.02173913,20 L6.97826087,20 C6.43826087,20 6,19.552 6,19 C6,18.448 6.43826087,18 6.97826087,18 L8.02173913,18 C8.56173913,18 9,18.448 9,19 C9,19.552 8.56173913,20 8.02173913,20 M5.33333333,4 C4.05,4 3,5 3,6.22222222 L3,21.7777778 C3,23 4.05,24 5.33333333,24 L21.6666667,24 C22.95,24 24,23 24,21.7777778 L24,6.22222222 C24,5 22.95,4 21.6666667,4 L5.33333333,4 Z" id="Fill-1" fill="#166FD8"></path>
    </g>
</svg>