<?xml version="1.0" encoding="UTF-8"?>
<svg width="27px" height="27px" viewBox="0 0 27 27" version="1.1" xmlns="http://www.w3.org/2000/svg" xmlns:xlink="http://www.w3.org/1999/xlink">
    <!-- Generator: Sketch 49.3 (51167) - http://www.bohemiancoding.com/sketch -->
    <title>icon_footer_finance_normal</title>
    <desc>Created with Sketch.</desc>
    <defs></defs>
    <g id="icon_footer_finance_normal" stroke="none" stroke-width="1" fill="none" fill-rule="evenodd">
        <path d="M22.0011322,8.0002 L10.8992678,8.0002 C10.3475051,8.0002 9.9001,7.55237744 9.9001,7.0001 C9.9001,6.44782256 10.3475051,6 10.8992678,6 L22.0011322,6 C22.5528949,6 23.0003,6.44782256 23.0003,7.0001 C23.0003,7.55237744 22.5528949,8.0002 22.0011322,8.0002" id="Fill-1" fill="#666666"></path>
        <path d="M5.38471923,8.0002 C4.6200465,8.0002 4,7.55237744 4,7.0001 C4,6.44782256 4.6200465,6 5.38471923,6 L6.61558077,6 C7.3802535,6 8.0003,6.44782256 8.0003,7.0001 C8.0003,7.55237744 7.3802535,8.0002 6.61558077,8.0002 L5.38471923,8.0002 Z" id="Fill-3" fill="#666666"></path>
        <path d="M22.0011322,14.0002 L10.8992678,14.0002 C10.3475051,14.0002 9.9001,13.5523774 9.9001,13.0001 C9.9001,12.4478226 10.3475051,12 10.8992678,12 L22.0011322,12 C22.5528949,12 23.0003,12.4478226 23.0003,13.0001 C23.0003,13.5523774 22.5528949,14.0002 22.0011322,14.0002" id="Fill-6" fill="#666666"></path>
        <path d="M6.61558077,14.0002 L5.38471923,14.0002 C4.6200465,14.0002 4,13.5523774 4,13.0001 C4,12.4478226 4.6200465,12 5.38471923,12 L6.61558077,12 C7.3802535,12 8.0003,12.4478226 8.0003,13.0001 C8.0003,13.5523774 7.3802535,14.0002 6.61558077,14.0002" id="Fill-8" fill="#666666"></path>
        <path d="M22.0011322,20.0002 L10.8992678,20.0002 C10.3475051,20.0002 9.9001,19.5523774 9.9001,19.0001 C9.9001,18.4478226 10.3475051,18 10.8992678,18 L22.0011322,18 C22.5528949,18 23.0003,18.4478226 23.0003,19.0001 C23.0003,19.5523774 22.5528949,20.0002 22.0011322,20.0002" id="Fill-11" fill="#666666"></path>
        <path d="M6.61558077,20.0002 L5.38471923,20.0002 C4.6200465,20.0002 4,19.5523774 4,19.0001 C4,18.4478226 4.6200465,18 5.38471923,18 L6.61558077,18 C7.3802535,18 8.0003,18.4478226 8.0003,19.0001 C8.0003,19.5523774 7.3802535,20.0002 6.61558077,20.0002" id="Fill-13" fill="#666666"></path>
    </g>
</svg>