<?xml version="1.0" encoding="UTF-8"?>
<svg width="27px" height="27px" viewBox="0 0 27 27" version="1.1" xmlns="http://www.w3.org/2000/svg" xmlns:xlink="http://www.w3.org/1999/xlink">
    <!-- Generator: Sketch 49.3 (51167) - http://www.bohemiancoding.com/sketch -->
    <title>icon_footer_game_normal</title>
    <desc>Created with Sketch.</desc>
    <defs></defs>
    <g id="icon_footer_game_normal" stroke="none" stroke-width="1" fill="none" fill-rule="evenodd">
        <g id="Page-1" transform="translate(2.000000, 2.000000)" fill="#666666">
            <path d="M11.5,0 C5.14886364,0 0,5.14886364 0,11.5 C0,17.8511364 5.14886364,23 11.5,23 C17.8511364,23 23,17.8511364 23,11.5 C23,5.14886364 17.8511364,0 11.5,0 M11.5,1.56818182 C16.9760909,1.56818182 21.4318182,6.02390909 21.4318182,11.5 C21.4318182,16.9760909 16.9760909,21.4318182 11.5,21.4318182 C6.02390909,21.4318182 1.56818182,16.9760909 1.56818182,11.5 C1.56818182,6.02390909 6.02390909,1.56818182 11.5,1.56818182" id="Fill-1"></path>
            <path d="M8.27646448,9.33991356 C8.42491903,9.89191356 8.71346448,10.2985954 9.14419176,10.5578681 C9.57387357,10.8181863 10.034919,10.881959 10.5262827,10.7502317 C11.0186918,10.6185045 11.3846008,10.3435499 11.6271463,9.9253681 C11.8686463,9.50718628 11.909419,9.00223174 11.7505099,8.40945901 C11.5916008,7.81668628 11.3030554,7.37132265 10.8838281,7.07232265 C10.4646008,6.77227719 9.99832812,6.69177719 9.48710085,6.82977719 C8.97482812,6.96568628 8.6026463,7.2573681 8.36846448,7.70273174 C8.13323721,8.14809537 8.10291903,8.69382265 8.27646448,9.33991356 M9.6031463,14.9372772 C9.7871463,15.6241408 10.1133281,16.1134136 10.5816918,16.4071863 C11.0500554,16.6999136 11.5665099,16.7710045 12.1321008,16.6194136 C12.6976918,16.4678226 13.0897372,16.1426863 13.3092827,15.642959 C13.5298736,15.1442772 13.5528736,14.5713681 13.3803736,13.9252772 C13.2287827,13.3596863 12.9256008,12.928959 12.4708281,12.6320499 C12.0160554,12.3351408 11.5121463,12.2609136 10.9601463,12.4093681 C10.4625099,12.5421408 10.0746463,12.8589136 9.79760085,13.3586408 C9.52055539,13.8594136 9.45469176,14.3852772 9.6031463,14.9372772 M6.41869176,9.83754992 C6.1416463,8.80150446 6.25873721,7.86791356 6.77205539,7.03677719 C7.28537357,6.20668628 8.05378267,5.65468628 9.07728267,5.38077719 C10.1007827,5.1068681 11.0427372,5.19991356 11.9021008,5.66200446 C12.7625099,6.12514083 13.3312372,6.87473174 13.6093281,7.91077719 C13.9480554,9.17682265 13.6511463,10.2233226 12.7186008,11.0502772 C14.1676008,11.1820045 15.1053736,12.0413681 15.5308736,13.630459 C15.819419,14.7072772 15.6646918,15.6795499 15.0677372,16.5472772 C14.4697372,17.4150045 13.6187372,17.9952317 12.5157827,18.2910954 C11.4107372,18.586959 10.3861918,18.5054136 9.44005539,18.0443681 C8.49391903,17.5833226 7.87919176,16.8211863 7.59378267,15.7569136 C7.17560085,14.1960499 7.55719176,12.9822772 8.73960085,12.1166408 C7.52791903,11.8490045 6.75428267,11.0900045 6.41869176,9.83754992"></path>
        </g>
    </g>
</svg>