<?xml version="1.0" encoding="UTF-8"?>
<svg width="27px" height="27px" viewBox="0 0 27 27" version="1.1" xmlns="http://www.w3.org/2000/svg" xmlns:xlink="http://www.w3.org/1999/xlink">
    <!-- Generator: Sketch 49.3 (51167) - http://www.bohemiancoding.com/sketch -->
    <title>icon_footer_game_pressed</title>
    <desc>Created with Sketch.</desc>
    <defs></defs>
    <g id="icon_footer_game_pressed" stroke="none" stroke-width="1" fill="none" fill-rule="evenodd">
        <g id="Group" transform="translate(3.000000, 3.000000)" fill="#166FD8">
            <path d="M10.5,0 C16.2988636,0 21,4.70113636 21,10.5 C21,16.2988636 16.2988636,21 10.5,21 C4.70113636,21 0,16.2988636 0,10.5 C0,4.70113636 4.70113636,0 10.5,0 Z M5.75203473,6.06562914 C5.2359341,6.92267276 5.1182085,7.88536451 5.39675568,8.95370441 C5.73416566,10.2451991 6.51199552,11.0278578 7.73024526,11.3038366 C6.54142692,12.1964556 6.1577676,13.4480627 6.57821617,15.0575798 C6.86517232,16.1550268 7.48323173,16.9409197 8.43449662,17.4163363 C9.38576152,17.891753 10.4158605,17.9758403 11.5268959,17.6707543 C12.635829,17.3656683 13.4914418,16.7673549 14.0926833,15.8725798 C14.6928736,14.9778047 14.8484396,13.9752254 14.5583301,12.8648418 C14.1305237,11.2262175 13.8057233,10.6358333 12.348869,10.5 C13.2368677,9.22855642 13.1870241,7.93476026 12.8464608,6.62925106 C12.5668625,5.56091116 11.7749605,5.12557628 10.9098876,4.64800355 C10.0458658,4.17150886 9.09880537,4.07556309 8.06975749,4.35801017 C7.0407096,4.64045725 6.26813535,5.20966357 5.75203473,6.06562914 Z" id="Combined-Shape"></path>
            <path d="M7.47638259,8.96933182 C7.64583525,9.54144879 7.97519392,9.96295163 8.46684527,10.2316732 C8.9573033,10.5014784 9.48356118,10.5675752 10.0444256,10.4310473 C10.6064833,10.2945194 11.0241483,10.0095445 11.3010005,9.57612254 C11.5766594,9.1427006 11.6231992,8.6193436 11.4418133,8.004968 C11.2604274,7.39059239 10.9310687,6.92899803 10.4525439,6.61910134 C9.97401921,6.30812109 9.44179468,6.22468737 8.85825703,6.36771661 C8.27352605,6.50857874 7.8487011,6.81089055 7.5813955,7.27248492 C7.31289659,7.73407928 7.27829006,8.29969492 7.47638259,8.96933182" id="Path"></path>
            <path d="M8.48176223,14.055662 C8.67649784,14.7170601 9.02171097,15.188193 9.51740161,15.471074 C10.0130923,15.7529484 10.5596797,15.8214036 11.1582704,15.675433 C11.7568611,15.5294623 12.1717808,15.2163804 12.4041358,14.7351806 C12.6375972,14.2549874 12.6619392,13.703319 12.4793745,13.0811819 C12.3189389,12.5365604 11.9980678,12.1218023 11.516761,11.8359012 C11.0354542,11.55 10.5021442,11.4785247 9.91793736,11.6214753 C9.39126605,11.7493255 8.98077223,12.0543538 8.68756236,12.5355537 C8.39435249,13.0177602 8.32464599,13.5241274 8.48176223,14.055662" id="Path"></path>
        </g>
    </g>
</svg>