<?xml version="1.0" encoding="UTF-8"?>
<svg width="27px" height="27px" viewBox="0 0 27 27" version="1.1" xmlns="http://www.w3.org/2000/svg" xmlns:xlink="http://www.w3.org/1999/xlink">
    <!-- Generator: Sketch 49.3 (51167) - http://www.bohemiancoding.com/sketch -->
    <title>icon_footer_home_normal</title>
    <desc>Created with Sketch.</desc>
    <defs></defs>
    <g id="icon_footer_home_normal" stroke="none" stroke-width="1" fill="none" fill-rule="evenodd">
        <path d="M13.9311377,4.77204126 L13.9305765,4.77241909 L4.84005666,10.8866715 C4.78705725,10.9223782 4.75,10.9936917 4.75,11.075362 L4.75,23.0402706 C4.75,23.1652229 4.83032973,23.25 4.909,23.25 L10.364,23.25 C10.4426703,23.25 10.523,23.1652229 10.523,23.0402706 L10.523,16.3137089 C10.523,15.3779033 11.2562093,14.6029225 12.182,14.6029225 L15.818,14.6029225 C16.7437907,14.6029225 17.477,15.3779033 17.477,16.3137089 L17.477,23.0402706 C17.477,23.1652229 17.5573297,23.25 17.636,23.25 L23.091,23.25 C23.1696703,23.25 23.25,23.1652229 23.25,23.0402706 L23.25,11.075362 C23.25,10.9936917 23.2129428,10.9223782 23.1604235,10.8869947 L14.0688623,4.77204126 C14.0467011,4.7571067 14.0232929,4.75 14,4.75 C13.9767071,4.75 13.9532989,4.7571067 13.9311377,4.77204126 Z M13.0931851,3.52792093 L13.0934235,3.5277606 L13.0928623,3.52813843 C13.0929699,3.52806592 13.0930775,3.52799342 13.0931851,3.52792093 Z" id="Fill-1" stroke="#666666" stroke-width="1.5"></path>
    </g>
</svg>