<?xml version="1.0" encoding="UTF-8"?>
<svg width="27px" height="27px" viewBox="0 0 27 27" version="1.1" xmlns="http://www.w3.org/2000/svg" xmlns:xlink="http://www.w3.org/1999/xlink">
    <!-- Generator: Sketch 49.3 (51167) - http://www.bohemiancoding.com/sketch -->
    <title>icon_footer_home_pressed</title>
    <desc>Created with Sketch.</desc>
    <defs></defs>
    <g id="icon_footer_home_pressed" stroke="none" stroke-width="1" fill="none" fill-rule="evenodd">
        <path d="M3.44205,9.57770819 C3.16695,9.76305046 3,10.0837925 3,10.4289508 L3,22.9922708 C3,23.5494074 3.4284,24 3.95445,24 L9.35401775,24 C9.88111775,24 10.3482069,23.5494074 10.3482069,22.9922708 C10.3482069,18.4748267 10.3482069,16.2161047 10.3482069,16.2161047 C10.3482069,16.2161047 11.061103,15.2072657 11.588203,15.2072657 L15.407053,15.2072657 C15.934153,15.2072657 16.6638433,15.6589681 16.6638433,16.2161047 L16.6121825,22.9922708 C16.6121825,23.5494074 17.1741813,24 17.7012813,24 L23.04555,24 C23.57265,24 24,23.5494074 24,22.9922708 L24,10.4289508 C24,10.0837925 23.8341,9.76305046 23.55795,9.57770819 L14.01345,3.15731896 C13.70055,2.94756035 13.3005,2.94756035 12.9876,3.15731896 L3.44205,9.57770819 Z" id="Fill-1" fill="#166FD8"></path>
    </g>
</svg>