<?xml version="1.0" encoding="UTF-8"?>
<svg width="60px" height="60px" viewBox="0 0 60 60" version="1.1" xmlns="http://www.w3.org/2000/svg" xmlns:xlink="http://www.w3.org/1999/xlink">
    <!-- Generator: Sketch 49.3 (51167) - http://www.bohemiancoding.com/sketch -->
    <title>icon_balance</title>
    <desc>Created with Sketch.</desc>
    <defs>
        <polygon id="path-1" points="0 7.10542736e-15 58.125 7.10542736e-15 58.125 49.449 0 49.449"></polygon>
    </defs>
    <g id="icon_balance" stroke="none" stroke-width="1" fill="none" fill-rule="evenodd">
        <g id="Page-1">
            <g transform="translate(1.000000, 5.000000)">
                <mask id="mask-2" fill="white">
                    <use xlink:href="#path-1"></use>
                </mask>
                <g id="Clip-2"></g>
                <path d="M45.3195169,34.2824119 L45.3195169,35.0245699 C45.3195169,35.2786511 45.1126366,35.4855314 44.8585554,35.4855314 L44.0912905,35.4855314 C43.8372094,35.4855314 43.630329,35.2786511 43.630329,35.0245699 L43.630329,34.3587366 C43.105094,34.3225828 42.5788548,34.2372196 42.065671,34.1046555 C41.8607993,34.0524332 41.7171882,33.8676469 41.7171882,33.6557452 L41.7171882,32.8242068 C41.7171882,32.7167496 41.7694104,32.6163222 41.8567822,32.553053 C41.9431497,32.4897838 42.054624,32.4707026 42.1570599,32.5048479 C42.836953,32.7257881 43.5349231,32.8382667 44.2278717,32.8382667 C45.3516537,32.8382667 45.3516537,32.4476043 45.3516537,32.3009804 C45.3516537,32.1222197 45.3516537,31.8229462 44.6707563,31.8229462 L43.7970384,31.8229462 C41.8859061,31.8229462 41.485201,30.6610019 41.485201,29.6848481 C41.485201,28.8613439 41.8638121,27.8530534 43.630329,27.6451688 L43.630329,26.9612586 C43.630329,26.7071774 43.8372094,26.5002971 44.0912905,26.5002971 L44.8585554,26.5002971 C45.1126366,26.5002971 45.3195169,26.7071774 45.3195169,26.9612586 L45.3195169,27.6572201 C45.720222,27.7024124 46.1239399,27.7777329 46.5186194,27.8811731 C46.7224869,27.9333953 46.866098,28.1181816 46.866098,28.3300833 L46.866098,29.1606174 C46.866098,29.2690789 46.8138758,29.3695063 46.7275083,29.4327755 C46.6401365,29.4960447 46.5286621,29.5151259 46.4272305,29.4809806 C45.7463331,29.2600405 45.0513759,29.1485661 44.3614401,29.1485661 C43.1733846,29.1485661 43.1733846,29.552284 43.1733846,29.6848481 C43.1733846,29.926878 43.222594,30.1628823 43.7970384,30.1628823 L44.6707563,30.1628823 C46.6782989,30.1628823 47.0980852,31.3258309 47.0980852,32.3009804 C47.0980852,33.0481598 46.7847519,33.9831384 45.3195169,34.2824119 Z M29.8310126,11.5236495 L29.8310126,12.2656748 C29.8310126,12.5197105 29.6241693,12.7265538 29.3701336,12.7265538 L28.603006,12.7265538 C28.3489702,12.7265538 28.1421269,12.5197105 28.1421269,12.2656748 L28.1421269,11.5999606 C27.6169859,11.5638132 27.0918448,11.4784653 26.5777488,11.3459249 C26.3729137,11.2927079 26.2293283,11.1079547 26.2293283,10.897095 L26.2293283,10.0647012 C26.2293283,9.9572632 26.2815412,9.85685382 26.3688973,9.79359592 C26.4552494,9.73033801 26.5667038,9.71226432 26.6691214,9.74640351 C27.3498969,9.96630005 28.046738,10.0787585 28.7395627,10.0787585 C29.8631436,10.0787585 29.8631436,9.68816607 29.8631436,9.54156838 C29.8631436,9.36283969 29.8631436,9.06361975 29.181364,9.06361975 L28.3098106,9.06361975 C26.398016,9.06361975 25.9973826,7.90188326 25.9973826,6.92590412 C25.9973826,6.10254723 26.3749219,5.09443708 28.1421269,4.88658967 L28.1421269,4.20280182 C28.1421269,3.94876609 28.3489702,3.74192278 28.603006,3.74192278 L29.3701336,3.74192278 C29.6241693,3.74192278 29.8310126,3.94876609 29.8310126,4.20280182 L29.8310126,4.89964289 C30.2326501,4.94482711 30.6342876,5.02013414 31.0309047,5.12255171 C31.2347357,5.17476458 31.377317,5.35951784 31.377317,5.57138162 L31.377317,6.40277126 C31.377317,6.5102093 31.3261083,6.61162277 31.2387521,6.67387658 C31.1524,6.73713449 31.0399415,6.75621227 30.9385281,6.72207308 C30.2577525,6.50217654 29.5629196,6.38971804 28.8731072,6.38971804 C27.6862683,6.38971804 27.6862683,6.79336374 27.6862683,6.92590412 C27.6862683,7.16789071 27.7344648,7.40485684 28.3098106,7.40485684 L29.181364,7.40485684 C31.1885474,7.40485684 31.6102668,8.56659333 31.6102668,9.54156838 C31.6102668,10.2896182 31.2959854,11.2244295 29.8310126,11.5236495 Z M15.0195468,24.1526388 L15.0195468,24.8946641 C15.0195468,25.1476958 14.8127035,25.3555432 14.5586678,25.3555432 L13.7925442,25.3555432 C13.5375044,25.3555432 13.3306611,25.1476958 13.3306611,24.8946641 L13.3306611,24.2279459 C12.80552,24.1917985 12.280379,24.1064505 11.766283,23.9749143 C11.5614479,23.9216973 11.4188666,23.736944 11.4188666,23.5250802 L11.4188666,22.6946947 C11.4188666,22.5862526 11.4700753,22.4858432 11.5574315,22.4225853 C11.6437836,22.3603315 11.7562421,22.3412537 11.8576555,22.3743888 C12.5384311,22.5952894 13.2342681,22.7067438 13.9280969,22.7067438 C15.0516778,22.7067438 15.0516778,22.3171554 15.0516778,22.1705578 C15.0516778,21.9918291 15.0516778,21.6926091 14.3698981,21.6926091 L13.4983447,21.6926091 C11.5865502,21.6926091 11.1859168,20.5298685 11.1859168,19.5548935 C11.1859168,18.7305325 11.5644601,17.7234265 13.3306611,17.5145749 L13.3306611,16.8317912 C13.3306611,16.5777555 13.5375044,16.3709121 13.7925442,16.3709121 L14.5586678,16.3709121 C14.8127035,16.3709121 15.0195468,16.5777555 15.0195468,16.8317912 L15.0195468,17.5286323 C15.4211843,17.5738165 15.8238259,17.6481194 16.2194389,17.7515411 C16.4232699,17.803754 16.5658512,17.9885072 16.5658512,18.200371 L16.5658512,19.0317606 C16.5658512,19.1391987 16.5146424,19.2406121 16.4272863,19.3028659 C16.3409342,19.3661239 16.2284757,19.3852016 16.1260581,19.3510624 C15.4462867,19.1301618 14.7514538,19.0187074 14.0616413,19.0187074 C12.8748025,19.0187074 12.8748025,19.4223531 12.8748025,19.5548935 C12.8748025,19.7968801 12.922999,20.0328421 13.4983447,20.0328421 L14.3698981,20.0328421 C16.3770816,20.0328421 16.798801,21.1955827 16.798801,22.1705578 C16.798801,22.9176035 16.4845196,23.8534189 15.0195468,24.1526388 Z M44.0998695,47.1276464 C37.8807939,47.1276464 32.4213286,44.4231717 32.3595868,41.3286016 L32.3792319,40.7504745 L32.4129092,40.7504745 C34.8320623,43.0068539 39.112822,44.4811715 44.0998695,44.4811715 C49.0850462,44.4811715 53.3620639,43.0068539 55.7849589,40.7504745 L55.8214426,40.7504745 L55.8401522,41.2743437 C55.8401522,44.3923009 50.3526225,47.1276464 44.0998695,47.1276464 Z M30.5503672,28.7819345 C29.9469821,28.8361924 29.3305003,28.8679987 28.7065347,28.8679987 C28.257504,28.8679987 28.1929558,28.8492891 27.7542154,28.8193537 L27.7542154,26.21404 C28.1920203,26.2411689 28.255633,26.260814 28.7065347,26.260814 C30.1874007,26.260814 31.5906217,26.1158145 32.9152624,25.8688476 C31.8207499,26.7191996 31.0106237,27.7033253 30.5503672,28.7819345 Z M30.2257554,33.5912408 C29.7262087,33.62866 29.2210491,33.6548534 28.7065347,33.6548534 C28.257504,33.6548534 28.1929558,33.6361438 27.7542154,33.6090149 L27.7542154,31.0008947 C28.1920203,31.0308301 28.255633,31.0476688 28.7065347,31.0476688 C29.1864363,31.0476688 29.6532412,31.0261527 30.1144332,30.9962173 C30.1265944,31.2993131 30.1640136,31.5977314 30.2257554,31.8914723 L30.2257554,33.5912408 Z M30.2257554,38.0721933 C29.7262087,38.1096125 29.2210491,38.135806 28.7065347,38.135806 C28.257504,38.135806 28.1929558,38.1170964 27.7542154,38.0890319 L27.7542154,35.7905559 C28.1920203,35.8195558 28.255633,35.8363944 28.7065347,35.8363944 C29.2238555,35.8363944 29.7271442,35.8120719 30.2257554,35.7746527 L30.2257554,38.0721933 Z M27.5427967,19.2306766 C27.0881531,17.9921002 25.7953188,16.8704588 24.5230651,15.9228169 C25.8411573,16.1632354 27.23783,16.306364 28.7065347,16.306364 C33.562615,16.306364 37.5655369,14.8947236 40.0155608,12.7113117 L40.0155608,14.1201456 C39.3747565,16.9359425 34.4672248,19.2896119 28.7065347,19.2896119 C28.185472,19.2896119 28.0488918,19.2671604 27.5427967,19.2316121 L27.5427967,19.2306766 Z M13.7042308,46.5308097 C7.73025111,46.5308097 2.47939798,43.9947216 2.16601194,41.039538 L2.20810858,41.039538 L2.20810858,40.2640246 C4.59732627,42.4773719 8.80605391,43.923625 13.7042308,43.923625 C18.6070851,43.923625 23.0038444,42.4773719 25.3930621,40.2630891 L25.3930621,41.039538 L25.4332878,41.039538 C25.1199017,43.9947216 19.6819525,46.5308097 13.7042308,46.5308097 Z M2.20810858,35.4771698 C4.59732627,37.6905172 8.80605391,39.1348994 13.7042308,39.1348994 C18.6070851,39.1348994 23.0038444,37.6905172 25.3930621,35.4743634 L25.3930621,36.5716823 C24.7522578,39.3874791 19.4658564,41.7430195 13.7061018,41.7430195 C7.94821811,41.7430195 2.85265477,39.3912211 2.20810858,36.5754242 L2.20810858,35.4771698 Z M2.20810858,30.6884442 C4.59732627,32.900856 8.80605391,34.3461737 13.7042308,34.3461737 C18.6070851,34.3461737 23.0038444,32.900856 25.3930621,30.6856377 L25.3930621,31.7820211 C24.7522578,34.5987535 19.4658564,36.9552293 13.7061018,36.9552293 C7.94821811,36.9552293 2.85265477,34.6015599 2.20810858,31.7866985 L2.20810858,30.6884442 Z M2.20810858,25.5863325 C4.65813251,27.7697444 8.8500215,29.1823203 13.7042308,29.1823203 C18.5621821,29.1823203 22.9421027,27.7697444 25.3930621,25.5863325 L25.3930621,26.9951664 C24.7522578,29.8109633 19.4658564,32.1665037 13.7061018,32.1665037 C7.94821811,32.1665037 2.85265477,29.8128342 2.20810858,26.9979728 L2.20810858,25.5863325 Z M13.7061018,15.4672378 C20.4106919,15.4672378 25.2723851,18.3990343 25.2723851,21.027735 C25.2723851,23.6592422 20.4097564,26.5891678 13.7061018,26.5891678 C7.00151165,26.5891678 2.32878559,23.6592422 2.32878559,21.0286705 C2.32878559,18.3990343 7.00151165,15.4672378 13.7061018,15.4672378 Z M17.207606,12.7113117 C17.4162182,12.8974723 17.6547658,13.0705363 17.886765,13.2426647 C17.6650561,13.202439 17.4349278,13.1743746 17.207606,13.1416328 L17.207606,12.7113117 Z M28.7065347,2.592217 C35.4111248,2.592217 39.8939483,5.52307802 39.8939483,8.15364973 C39.8939483,10.7842214 35.4111248,13.7132115 28.7065347,13.7132115 C22.0010091,13.7132115 17.3292185,10.7842214 17.3292185,8.15364973 C17.3292185,5.52307802 22.0019446,2.592217 28.7065347,2.592217 Z M40.2045279,22.9847607 C40.006206,23.016567 39.8041422,23.0436959 39.6086267,23.0820506 C39.811626,22.9220834 40.0230447,22.7667937 40.2045279,22.5984071 L40.2045279,22.9847607 Z M28.7065347,24.0792731 C28.257504,24.0792731 28.1929558,24.0605635 27.7542154,24.0306281 L27.7542154,22.0754734 C27.798183,21.8631193 27.8299893,21.6488942 27.8505699,21.4327982 C28.257504,21.4571207 28.2893103,21.4720884 28.7065347,21.4720884 C33.6075181,21.4720884 37.6272786,20.0248997 40.0146253,17.8096815 L40.0146253,18.9070003 C39.3766275,21.7227972 34.4672248,24.0792731 28.7065347,24.0792731 Z M55.7690557,35.592234 L55.7690557,37.0197775 C55.1188966,39.8786065 49.9466239,42.2668887 44.0989341,42.2668887 C38.2568571,42.2668887 33.0845844,39.879542 32.4306834,37.0244549 L32.4306834,35.592234 C34.9162556,37.8065168 39.1726927,39.2396732 44.0998695,39.2396732 C49.0279818,39.2396732 53.282548,37.8065168 55.7690557,35.592234 Z M44.0998695,25.3215914 C50.9045561,25.3215914 55.6455723,28.2954846 55.6455723,30.9653465 C55.6455723,33.6352084 50.9045561,36.6091015 44.0998695,36.6091015 C37.2961184,36.6091015 32.5541668,33.6333374 32.5541668,30.9653465 C32.5541668,28.2945491 37.2961184,25.3215914 44.0998695,25.3215914 Z M57.9449838,30.9634755 C57.9449838,26.3244267 51.6314246,22.6900842 43.8978057,22.6900842 C43.3823558,22.6900842 42.7640031,22.7087938 42.2653919,22.7406002 L42.2653919,9.20045263 C42.3374239,8.85806669 42.3093595,8.50913239 42.3093595,8.15364973 C42.3093595,3.5810201 36.4410891,7.10542736e-15 28.7065347,7.10542736e-15 C20.9710449,7.10542736e-15 14.9138074,3.5810201 14.9138074,8.15364973 C14.9138074,8.50913239 14.9633878,8.85806669 15.0344844,9.20045263 L15.0344844,12.9133755 C14.5985504,12.8899885 14.156068,12.8759563 13.7061018,12.8759563 C5.97248289,12.8759563 0.0265675973,16.4569764 0.0265675973,21.027735 C0.0265675973,21.3850887 -0.0379805706,21.7330875 0.0340514428,22.0754734 L0.0340514428,41.039538 L0.127599512,41.039538 C0.369889012,45.3623943 6.23909489,48.7123507 13.7061018,48.7123507 C21.1674958,48.7123507 27.409023,45.3680072 27.6616028,41.039538 L27.7542154,41.039538 L27.7542154,40.2490569 C28.1957623,40.2761858 28.2528266,40.317347 28.7065347,40.317347 C29.2219846,40.317347 29.7271442,40.2948954 30.2257554,40.2630891 L30.2257554,40.4857335 L30.3267873,40.4857335 L30.2977874,41.0030543 C30.2977874,45.4596843 36.3597023,49.3428647 44.0998695,49.3428647 C51.8409723,49.3428647 57.9038227,45.7973929 57.9038227,41.2640534 L57.888855,40.7504745 L57.9739837,40.7504745 L57.9739837,32.0280525 C58.0469512,31.6791182 57.9431128,31.326442 57.9431128,30.9653465 L57.9449838,30.9634755 Z" id="Fill-1" fill="#BFBFBF" mask="url(#mask-2)"></path>
            </g>
        </g>
    </g>
</svg>