<?xml version="1.0" encoding="UTF-8"?>
<svg width="24px" height="24px" viewBox="0 0 24 24" version="1.1" xmlns="http://www.w3.org/2000/svg" xmlns:xlink="http://www.w3.org/1999/xlink">
    <!-- Generator: Sketch 49.3 (51167) - http://www.bohemiancoding.com/sketch -->
    <title>icon_me_bank card</title>
    <desc>Created with Sketch.</desc>
    <defs>
        <linearGradient x1="50%" y1="0%" x2="50%" y2="100%" id="linearGradient-1">
            <stop stop-color="#46D66A" offset="0%"></stop>
            <stop stop-color="#22AC38" offset="100%"></stop>
        </linearGradient>
    </defs>
    <g id="icon_me_bank-card" stroke="none" stroke-width="1" fill="none" fill-rule="evenodd">
        <g>
            <path d="M22.3888889,5 L1.61111111,5 C1.27475556,5 1,5.281 1,5.625 L1,7.5 L23,7.5 L23,5.625 C23,5.281 22.7252444,5 22.3888889,5 Z" id="Page-1" fill-opacity="0.6" fill="url(#linearGradient-1)"></path>
            <path d="M1,19.375 C1,19.719 1.27475556,20 1.61111111,20 L22.3888889,20 C22.7252444,20 23,19.719 23,19.375 L23,9.375 L1,9.375 L1,19.375 Z" id="Path" fill="url(#linearGradient-1)"></path>
            <path d="M3.29191111,11.937 L10.3192,11.937 C10.7416,11.937 11.0828444,12.287 11.0828444,12.719 C11.0828444,13.15 10.7416,13.5 10.3192,13.5 L3.29191111,13.5 C2.86951111,13.5 2.52826667,13.15 2.52826667,12.719 C2.52826667,12.287 2.86951111,11.937 3.29191111,11.937 Z" id="Path" fill-opacity="0.85" fill="#FFFFFF"></path>
        </g>
    </g>
</svg>