<?xml version="1.0" encoding="UTF-8"?>
<svg width="24px" height="24px" viewBox="0 0 24 24" version="1.1" xmlns="http://www.w3.org/2000/svg" xmlns:xlink="http://www.w3.org/1999/xlink">
    <!-- Generator: Sketch 49.3 (51167) - http://www.bohemiancoding.com/sketch -->
    <title>icon_me_customer service</title>
    <desc>Created with Sketch.</desc>
    <defs>
        <linearGradient x1="50%" y1="0%" x2="50%" y2="100%" id="linearGradient-1">
            <stop stop-color="#84CDFF" offset="0%"></stop>
            <stop stop-color="#37AAF9" offset="100%"></stop>
        </linearGradient>
    </defs>
    <g id="icon_me_customer-service" stroke="none" stroke-width="1" fill="none" fill-rule="evenodd">
        <g fill="url(#linearGradient-1)">
            <path d="M17.4842,19.0382 C17.3022,18.9872 17.1222,19.0062 16.9832,19.0942 L15.3712,20.0542 C15.2372,20.0152 15.1002,20.0152 14.9822,20.0152 L14.3152,20.0152 C13.6012,20.0152 13.0222,20.5912 13.0202,21.3092 L13.0202,21.9782 C13.0202,22.6792 13.6122,23.2722 14.3142,23.2722 L14.9822,23.2722 C15.4282,23.2722 15.8142,23.0622 16.0792,22.6782 L18.2842,21.4132 C18.4332,21.3282 18.5392,21.1862 18.5902,21.0022 C18.6762,20.6892 18.5912,20.2742 18.3672,19.8852 C18.1672,19.4582 17.8282,19.1342 17.4842,19.0382 Z" id="Fill-1" fill-opacity="0.6"></path>
            <path d="M20.8311,11.318 C20.8311,6.477 17.3941,2.399 13.0121,2.035 C12.9591,2.03 12.9051,2.028 12.8521,2.025 L12.6391,2.013 C12.5511,2.006 12.4631,2 12.3731,2 L11.6401,2 C6.9761,2 3.1821,6.18 3.1821,11.318 L3.1821,11.707 C2.4481,12.166 2.0001,13.011 2.0001,13.956 L2.0001,16.629 C2.0001,18.06 3.0841,19.224 4.4171,19.224 C5.7271,19.224 6.8351,18.035 6.8351,16.629 L6.8351,13.956 C6.8351,13.002 6.3741,12.156 5.6191,11.703 L5.6191,11.615 C5.6191,7.761 8.4711,4.625 11.9811,4.625 C12.2241,4.622 12.5021,4.641 12.8211,4.685 C12.8901,4.694 12.9561,4.706 13.0611,4.726 C13.2981,4.768 13.5321,4.821 13.7601,4.893 L13.8471,4.615 C13.8471,4.615 13.8451,4.715 13.8411,4.915 C15.5561,5.487 16.9931,6.874 17.7821,8.718 C17.8141,8.795 17.8501,8.858 17.8861,8.92 C18.2321,9.811 18.3931,10.703 18.3931,11.615 L18.3931,11.703 C17.6391,12.156 17.1781,13.002 17.1781,13.956 L17.1781,16.629 C17.1781,18.035 18.2841,19.224 19.5951,19.224 C20.8691,19.224 21.9251,18.149 22.0001,16.763 L22.0001,13.848 C21.9661,12.933 21.5321,12.146 20.8311,11.707 L20.8311,11.318 Z" id="Fill-4"></path>
        </g>
    </g>
</svg>