<?xml version="1.0" encoding="UTF-8"?>
<svg width="16px" height="16px" viewBox="0 0 16 16" version="1.1" xmlns="http://www.w3.org/2000/svg" xmlns:xlink="http://www.w3.org/1999/xlink">
    <!-- Generator: Sketch 49.3 (51167) - http://www.bohemiancoding.com/sketch -->
    <title>icon_announcement</title>
    <desc>Created with Sketch.</desc>
    <defs></defs>
    <g id="icon_announcement" stroke="none" stroke-width="1" fill="none" fill-rule="evenodd">
        <g fill="#BB7605" id="Fill-1">
            <path d="M8.559965,2.05863869 C8.3456034,1.95670756 8.09143179,1.98951801 7.91031811,2.14263344 L4.41578651,5.09382399 L1.6159615,5.09382399 C1.45365915,5.09294904 1.29835635,5.15725752 1.18461346,5.27318778 C1.06999563,5.38518078 1.00393725,5.53829621 1,5.6984112 L1,10.6261032 C1,10.789718 1.06430848,10.9467707 1.17892632,11.0631384 C1.29310668,11.1781937 1.44840947,11.2429397 1.61027436,11.2425022 L4.41009937,11.2425022 L7.89369414,14.1823185 C8.07437035,14.3367463 8.32897944,14.3695568 8.54290357,14.2667507 C8.75726517,14.1621947 8.89244422,13.9443333 8.89025686,13.7063482 L8.89025686,2.61860369 C8.89156928,2.37930614 8.75376539,2.16100729 8.53721642,2.05863869 L8.559965,2.05863869 Z M10.9227548,5.1384462 C10.6213362,4.99932989 10.263921,5.12925927 10.1221799,5.42980299 C9.976064,5.73472143 10.1003062,6.10044857 10.4021624,6.25268906 C11.0399975,6.65078918 11.4061621,7.36780686 11.3541029,8.117635 C11.3541029,9.57923115 10.5027811,10.0608885 10.4747828,10.07795 C10.1724892,10.2323778 10.0499969,10.6016047 10.2004875,10.9065232 C10.3470408,11.2070669 10.7088307,11.3317466 11.0093744,11.1856307 C11.0119993,11.1838809 11.0150616,11.1825684 11.0181239,11.1808185 C11.0798075,11.1471332 12.5694019,10.3688693 12.5694019,8.117635 C12.6306481,6.89271156 11.9928129,5.73865868 10.9227548,5.1384462 Z M12.8161365,3.32993423 C12.5344041,3.15057044 12.1608024,3.23325277 11.9814387,3.51454769 C11.79945,3.79977986 11.8790701,4.17819371 12.160365,4.36586948 C12.2277358,4.41049169 13.7842635,5.48579949 13.7842635,8.16269468 C13.7842635,10.8395899 12.2889819,11.9201473 12.1997375,11.9590824 C11.9188801,12.1511329 11.8440722,12.5326091 12.031748,12.8160913 C12.2150491,13.0951989 12.5904006,13.173069 12.8695082,12.9893305 C12.8716955,12.9875806 12.8747578,12.9858307 12.8773827,12.9840808 C12.9893757,12.9280843 15,11.5224847 15,8.16269468 C15,4.8024672 12.9053809,3.3911804 12.8161365,3.32993423 Z"></path>
        </g>
    </g>
</svg>