<?xml version="1.0" encoding="UTF-8"?>
<svg width="24px" height="24px" viewBox="0 0 24 24" version="1.1" xmlns="http://www.w3.org/2000/svg" xmlns:xlink="http://www.w3.org/1999/xlink">
    <!-- Generator: Sketch 49.3 (51167) - http://www.bohemiancoding.com/sketch -->
    <title>icon_bank card</title>
    <desc>Created with Sketch.</desc>
    <defs></defs>
    <g id="icon_bank-card" stroke="none" stroke-width="1" fill="none" fill-rule="evenodd">
        <g fill="#BFBFBF">
            <path d="M21,5 L3,5 C2.448,5 2,5.448 2,6 L2,8.5 L22,8.5 L22,6 C22,5.448 21.552,5 21,5" id="Fill-1"></path>
            <path d="M5,12.25 L10,12.25 C10.414,12.25 10.75,12.586 10.75,13 C10.75,13.414 10.414,13.75 10,13.75 L5,13.75 C4.586,13.75 4.25,13.414 4.25,13 C4.25,12.586 4.586,12.25 5,12.25 Z M2,11 L2,18 C2,18.552 2.448,19 3,19 L21,19 C21.552,19 22,18.552 22,18 L22,11 L22,10.5 L2,10.5 L2,11 Z" id="Fill-3"></path>
        </g>
    </g>
</svg>