<?xml version="1.0" encoding="UTF-8"?>
<svg width="24px" height="24px" viewBox="0 0 24 24" version="1.1" xmlns="http://www.w3.org/2000/svg" xmlns:xlink="http://www.w3.org/1999/xlink">
    <!-- Generator: Sketch 49.3 (51167) - http://www.bohemiancoding.com/sketch -->
    <title>icon_me_my recommed</title>
    <desc>Created with Sketch.</desc>
    <defs>
        <linearGradient x1="50%" y1="0%" x2="50%" y2="100%" id="linearGradient-1">
            <stop stop-color="#BD62E1" offset="0%"></stop>
            <stop stop-color="#973BE7" offset="100%"></stop>
        </linearGradient>
    </defs>
    <g id="icon_me_my-recommed" stroke="none" stroke-width="1" fill="none" fill-rule="evenodd">
        <path d="M7.875,11.091075 C11.61975,11.091075 15,14.871075 15,19.568325 C15,24.265575 0.75,24.265575 0.75,19.568325 C0.75,14.871075 4.13025,11.091075 7.875,11.091075 Z M12.75,5.477325 C12.75,8.007825 10.48425,10.204575 7.875,10.204575 C5.26575,10.204575 3,8.007825 3,5.477325 C3,2.946825 5.26575,0.750075 7.875,0.750075 C10.48425,0.750075 12.75,2.946825 12.75,5.477325 Z" id="Combined-Shape" fill="url(#linearGradient-1)"></path>
        <path d="M18.125,11.4382632 C20.8185921,11.4382632 23.25,14.1572105 23.25,17.5359342 C23.25,20.9146579 13,20.9146579 13,17.5359342 C13,14.1572105 15.4314079,11.4382632 18.125,11.4382632 Z M21.6315789,7.40030263 C21.6315789,9.22048684 20.0018289,10.8006053 18.125,10.8006053 C16.2481711,10.8006053 14.6184211,9.22048684 14.6184211,7.40030263 C14.6184211,5.58011842 16.2481711,4 18.125,4 C20.0018289,4 21.6315789,5.58011842 21.6315789,7.40030263 Z" id="Combined-Shape" fill="url(#linearGradient-1)" opacity="0.75"></path>
        <rect id="Rectangle-13" x="0" y="0" width="24" height="24"></rect>
    </g>
</svg>