<?xml version="1.0" encoding="UTF-8"?>
<svg width="24px" height="24px" viewBox="0 0 24 24" version="1.1" xmlns="http://www.w3.org/2000/svg" xmlns:xlink="http://www.w3.org/1999/xlink">
    <!-- Generator: Sketch 49.3 (51167) - http://www.bohemiancoding.com/sketch -->
    <title>icon_me_profile</title>
    <desc>Created with Sketch.</desc>
    <defs>
        <linearGradient x1="50%" y1="0%" x2="50%" y2="100%" id="linearGradient-1">
            <stop stop-color="#BD62E1" offset="0%"></stop>
            <stop stop-color="#973BE7" offset="100%"></stop>
        </linearGradient>
    </defs>
    <g id="icon_me_profile" stroke="none" stroke-width="1" fill="none" fill-rule="evenodd">
        <g id="Combined-Shape">
            <path d="M7.875,11.091075 C11.61975,11.091075 15,14.871075 15,19.568325 C15,24.265575 0.75,24.265575 0.75,19.568325 C0.75,14.871075 4.13025,11.091075 7.875,11.091075 Z M12.75,5.477325 C12.75,8.007825 10.48425,10.204575 7.875,10.204575 C5.26575,10.204575 3,8.007825 3,5.477325 C3,2.946825 5.26575,0.750075 7.875,0.750075 C10.48425,0.750075 12.75,2.946825 12.75,5.477325 Z" fill="url(#linearGradient-1)"></path>
            <path d="M15,3.98745 C15,3.44245 15.442,3.00045 15.987,3.00045 L22.91,3.00045 C23.456,3.00045 23.897,3.44245 23.897,3.98745 C23.897,4.53245 23.456,4.97445 22.91,4.97445 L15.987,4.97445 C15.442,4.97445 15,4.53245 15,3.98745 Z M15,7.83705 C15,7.29205 15.442,6.85005 15.987,6.85005 L22.91,6.85005 C23.456,6.85005 23.897,7.29205 23.897,7.83705 C23.897,8.38205 23.456,8.82405 22.91,8.82405 L15.987,8.82405 C15.442,8.82405 15,8.38205 15,7.83705 Z M15,11.48985 C15,10.94485 15.442,10.50285 15.987,10.50285 L22.91,10.50285 C23.456,10.50285 23.897,10.94485 23.897,11.48985 C23.897,12.03485 23.456,12.47685 22.91,12.47685 L15.987,12.47685 C15.442,12.47685 15,12.03485 15,11.48985 Z" fill-opacity="0.4" fill="#9013FE"></path>
        </g>
    </g>
</svg>