<?xml version="1.0" encoding="UTF-8"?>
<svg width="24px" height="24px" viewBox="0 0 24 24" version="1.1" xmlns="http://www.w3.org/2000/svg" xmlns:xlink="http://www.w3.org/1999/xlink">
    <!-- Generator: Sketch 49.3 (51167) - http://www.bohemiancoding.com/sketch -->
    <title>icon_me_recommed link</title>
    <desc>Created with Sketch.</desc>
    <defs>
        <linearGradient x1="50%" y1="0%" x2="50%" y2="100%" id="linearGradient-1">
            <stop stop-color="#84CDFF" offset="0%"></stop>
            <stop stop-color="#37AAF9" offset="100%"></stop>
        </linearGradient>
    </defs>
    <g id="icon_me_recommed-link" stroke="none" stroke-width="1" fill="none" fill-rule="evenodd">
        <g id="Page-1" transform="translate(2.000000, 2.000000)" fill="url(#linearGradient-1)">
            <path d="M18.6072066,1.40481519 C17.7069531,0.500688608 16.5063701,0.00177721519 15.2265982,5.06329114e-06 L15.2197034,5.06329114e-06 C13.9424918,5.06329114e-06 12.7431255,0.495372152 11.8421115,1.39524557 L11.6503245,1.58678987 L9.046218,4.18762532 C8.77156654,4.46192911 8.96720659,4.93056203 9.35562231,4.92901772 C10.0829734,4.92618228 10.8270545,5.03716962 11.45073,5.35048608 C11.6172193,5.43413165 11.8189176,5.39982785 11.9507047,5.26820759 L13.6435564,3.57749873 L13.6399062,3.57387848 L13.8316933,3.38230886 C14.1998809,3.01461266 14.6928593,2.81210633 15.2198809,2.81210633 C15.7468771,2.81210633 16.2398809,3.01461266 16.6080938,3.38230886 C16.9762307,3.75003038 17.1789937,4.24241013 17.1789937,4.76873924 C17.1789937,5.29509367 16.976256,5.78747342 16.6080938,6.15516962 L12.1385374,10.6190684 C11.7703752,10.9867392 11.2773714,11.1892456 10.7503752,11.1892456 C10.583962,11.1892456 10.4209962,11.1690177 10.2642408,11.1298025 C9.92302408,11.0390684 9.73554626,10.876638 9.73554626,10.876638 L9.73539417,10.8767392 C9.17301141,10.3801316 8.31356907,10.4002329 7.77557161,10.9375494 C7.21640811,11.4960304 7.21640811,12.4014987 7.77557161,12.9599797 C7.78102155,12.9654228 7.78672497,12.9704608 7.79225095,12.9758025 C7.79443093,12.9783342 7.79643346,12.9809671 7.79891762,12.9832962 C7.80728264,12.9911443 7.81607858,12.9990937 7.82512801,13.0070177 C7.89283397,13.0685873 7.96515336,13.1222329 8.04069202,13.1685114 C8.15825856,13.2468152 8.28601521,13.321043 8.39382256,13.3804354 C8.46606591,13.421119 8.5392218,13.4595747 8.61308745,13.496157 C8.6340507,13.5066886 8.6461673,13.512638 8.6461673,13.512638 L8.6461673,13.5126127 C9.30294804,13.8315241 10.0197795,13.9909165 10.7379797,13.9908658 C11.9741014,13.9907646 13.2141267,13.5189418 14.156839,12.5774228 L18.5670292,8.17281519 C20.4412497,6.30099241 20.4592471,3.26489114 18.6072066,1.40481519" id="Fill-1"></path>
            <path d="M1.37735108,18.5746633 C2.27757921,19.4787646 3.47816223,19.9777013 4.75793409,19.9794481 C4.76029151,19.9794734 4.76249683,19.9794734 4.7648289,19.9794481 C6.04204056,19.9794481 7.24140684,19.484081 8.14242079,18.5842076 L8.33423321,18.3926633 L10.7762104,15.9537772 C11.0390241,15.6912709 10.8726616,15.2395241 10.5018885,15.2135494 C9.82422053,15.166081 9.15590621,14.9760304 8.54680608,14.643119 C8.37679341,14.5502076 8.16604563,14.5792203 8.02901141,14.716081 L6.34100127,16.4019544 L6.34465146,16.4055747 L6.15283904,16.5971443 C5.78467681,16.9648658 5.29169835,17.1673468 4.76467681,17.1673468 C4.23765526,17.1673722 3.74467681,16.9648658 3.37646388,16.5971696 C3.008327,16.2294481 2.80556401,15.737043 2.80556401,15.2107139 C2.80556401,14.6843595 3.00830165,14.1920051 3.37646388,13.8243089 L7.84599493,9.36038481 C8.21418251,8.99273924 8.70718631,8.79020759 9.23418251,8.79023291 C9.40059569,8.79023291 9.56356147,8.81043544 9.72031686,8.84965063 C10.0615336,8.94038481 10.2489861,9.10284051 10.2489861,9.10284051 L10.2491635,9.10271392 C10.8115463,9.59932152 11.6709886,9.57922025 12.2089861,9.0419038 C12.7681496,8.48342278 12.7681496,7.57795443 12.2089861,7.01947342 C12.2035361,7.01403038 12.1978327,7.00899241 12.1923067,7.00365063 C12.1901267,7.0011443 12.1881242,6.99848608 12.1856401,6.99615696 C12.1772497,6.98830886 12.1684791,6.98038481 12.1594297,6.97243544 C12.0917237,6.91086582 12.0194043,6.85722025 11.9438657,6.81094177 C11.8262991,6.73263797 11.6985425,6.65843544 11.5907351,6.59901772 C11.5184918,6.55833418 11.4453359,6.5199038 11.3714702,6.4832962 C11.3504816,6.47276456 11.3383904,6.46684051 11.3383904,6.46684051 C10.6816096,6.14792911 9.9647782,5.98853671 9.24657795,5.98858734 C8.01045627,5.98868861 6.77043093,6.46051139 5.82771863,7.4020557 L1.41752852,11.8066633 C-0.456692015,13.6784608 -0.47468948,16.714562 1.37735108,18.5746633" id="Fill-3"></path>
        </g>
        <rect id="Rectangle-13" x="0" y="0" width="24" height="24"></rect>
    </g>
</svg>