<?xml version="1.0" encoding="UTF-8"?>
<svg width="24px" height="24px" viewBox="0 0 24 24" version="1.1" xmlns="http://www.w3.org/2000/svg" xmlns:xlink="http://www.w3.org/1999/xlink">
    <!-- Generator: Sketch 49.3 (51167) - http://www.bohemiancoding.com/sketch -->
    <title>icon_me_redenvelope</title>
    <desc>Created with Sketch.</desc>
    <defs>
        <polygon id="path-1" points="0 0.0469409351 16.8958837 0.0469409351 16.8958837 7.78765476 0 7.78765476"></polygon>
        <linearGradient x1="50%" y1="0%" x2="50%" y2="100%" id="linearGradient-3">
            <stop stop-color="#EE5F60" offset="0%"></stop>
            <stop stop-color="#CC0915" offset="100%"></stop>
        </linearGradient>
        <polygon id="path-4" points="1.73469388e-05 0.161119739 16.9132653 0.161119739 16.9132653 14.2328762 1.73469388e-05 14.2328762"></polygon>
    </defs>
    <g id="icon_me_redenvelope" stroke="none" stroke-width="1" fill="none" fill-rule="evenodd">
        <g id="Page-1" transform="translate(4.000000, 1.500000)">
            <g id="Group-3">
                <mask id="mask-2" fill="white">
                    <use xlink:href="#path-1"></use>
                </mask>
                <g id="Clip-2"></g>
                <path d="M4.61893469,7.78765476 C5.1317102,6.18227478 6.65806735,5.01438431 8.45659796,5.01438431 C10.2542612,5.01438431 11.780098,6.18125061 12.2935673,7.78577712 C14.9934449,6.90584796 16.8620571,5.13352894 16.8957102,3.09356125 L16.8958837,3.09356125 L16.8958837,1.41239299 C16.8958837,0.658265535 16.2745163,0.0468385185 15.5081286,0.0468385185 L1.38772041,0.0468385185 C0.621332653,0.0468385185 -3.46938776e-05,0.658265535 -3.46938776e-05,1.41239299 L-3.46938776e-05,3.09356125 C0.046455102,5.13540658 1.92096531,6.90857906 4.61893469,7.78765476" id="Fill-1" fill="url(#linearGradient-3)" mask="url(#mask-2)"></path>
            </g>
            <g id="Group-6" transform="translate(0.000000, 7.000000)">
                <mask id="mask-5" fill="white">
                    <use xlink:href="#path-4"></use>
                </mask>
                <g id="Clip-5"></g>
                <path d="M8.45665,6.05658741 C6.43382347,6.05658741 4.75568061,4.58992166 4.4763949,2.68864435 C2.64507857,2.16372169 1.09322143,1.28619606 1.73469388e-05,0.169761139 L1.73469388e-05,12.8773626 C1.73469388e-05,13.625945 0.621384694,14.2328762 1.38777245,14.2328762 L15.5255276,14.2328762 C16.2919153,14.2328762 16.9132827,13.625945 16.9132827,12.8773626 L16.9132827,0.161119739 C15.823201,1.28060456 14.2713439,2.15999403 12.4370786,2.6862722 C12.1588337,4.58890502 10.4801704,6.05658741 8.45665,6.05658741 Z" id="Fill-4" fill="url(#linearGradient-3)" mask="url(#mask-5)"></path>
            </g>
            <path d="M6.375,9 C6.375,10.1027147 7.32823477,11 8.50008434,11 C9.67176523,11 10.625,10.1027147 10.625,9 C10.625,7.89728528 9.67176523,7 8.50008434,7 C7.32823477,7 6.375,7.89728528 6.375,9" id="Fill-7" fill="url(#linearGradient-3)"></path>
        </g>
        <rect id="Rectangle-13" x="0" y="0" width="24" height="24"></rect>
    </g>
</svg>