<?xml version="1.0" encoding="UTF-8"?>
<svg width="24px" height="24px" viewBox="0 0 24 24" version="1.1" xmlns="http://www.w3.org/2000/svg" xmlns:xlink="http://www.w3.org/1999/xlink">
    <!-- Generator: Sketch 49.3 (51167) - http://www.bohemiancoding.com/sketch -->
    <title>icon_me_reset withdraw password</title>
    <desc>Created with Sketch.</desc>
    <defs>
        <linearGradient x1="50%" y1="0%" x2="50%" y2="100%" id="linearGradient-1">
            <stop stop-color="#BD62E1" offset="0%"></stop>
            <stop stop-color="#973BE7" offset="100%"></stop>
        </linearGradient>
    </defs>
    <g id="icon_me_reset-withdraw-password" stroke="none" stroke-width="1" fill="none" fill-rule="evenodd">
        <g fill="url(#linearGradient-1)" id="Fill-1">
            <path d="M9.658,17.289 C8.844,18.102 7.525,18.101 6.713,17.288 C5.899,16.474 5.899,15.155 6.713,14.341 C7.526,13.528 8.846,13.529 9.658,14.343 C10.47,15.156 10.472,16.474 9.658,17.289 M18.63,2.423 L10.826,10.227 C8.533,9.143 5.709,9.544 3.811,11.441 C1.396,13.856 1.396,17.774 3.811,20.189 C6.226,22.603 10.143,22.603 12.558,20.189 C14.456,18.291 14.856,15.469 13.772,13.173 L16.736,10.209 L18.619,12.091 C19.181,12.654 20.094,12.655 20.658,12.091 L21.508,11.242 C22.07,10.679 22.071,9.767 21.508,9.203 L20.444,8.139 L20.445,8.138 L19.625,7.322 L21.578,5.369 C22.14,4.807 22.141,3.894 21.578,3.331 L20.67,2.423 C20.106,1.859 19.194,1.859 18.63,2.423"></path>
        </g>
    </g>
</svg>