<?xml version="1.0" encoding="UTF-8"?>
<svg width="24px" height="24px" viewBox="0 0 24 24" version="1.1" xmlns="http://www.w3.org/2000/svg" xmlns:xlink="http://www.w3.org/1999/xlink">
    <!-- Generator: Sketch 49.3 (51167) - http://www.bohemiancoding.com/sketch -->
    <title>icon_me_reset password</title>
    <desc>Created with Sketch.</desc>
    <defs>
        <linearGradient x1="50%" y1="0%" x2="50%" y2="100%" id="linearGradient-1">
            <stop stop-color="#EE5F60" offset="0%"></stop>
            <stop stop-color="#CC0915" offset="100%"></stop>
        </linearGradient>
    </defs>
    <g id="icon_me_reset-password" stroke="none" stroke-width="1" fill="none" fill-rule="evenodd">
        <g>
            <path d="M8.8842,10 L8.8842,6.128 C8.8842,4.918 10.2742,3.557 12.0002,3.557 C13.7262,3.557 15.1152,4.905 15.1152,6.128 L15.1152,10 L17.5302,10 L17.5302,6.128 C17.5302,3.296 15.0502,1 11.9872,1 C8.9362,1 6.4572,3.296 6.4572,6.128 L6.4572,10 L8.8842,10 Z" id="Fill-1" fill-opacity="0.6" fill="url(#linearGradient-1)"></path>
            <path d="M18.9235,9.7998 L17.5295,9.7998 L15.1155,9.7998 L8.8845,9.7998 L6.4575,9.7998 L5.0765,9.7998 C3.9345,9.7998 3.0005,10.7898 3.0005,11.9998 L3.0005,20.7998 C3.0005,22.0098 3.9345,22.9998 5.0765,22.9998 L18.9235,22.9998 C20.0655,22.9998 21.0005,22.0098 21.0005,20.7998 L21.0005,11.9998 C21.0005,10.7898 20.0655,9.7998 18.9235,9.7998" id="Path" fill="url(#linearGradient-1)"></path>
            <path d="M13.0385,17.9268 L13.0385,18.9308 C13.0385,19.5638 12.5715,20.0718 12.0005,20.0718 C11.4295,20.0718 10.9615,19.5618 10.9615,18.9308 L10.9615,17.9268 C10.1435,17.5278 9.5725,16.6478 9.5725,15.6438 C9.5725,14.2418 10.6625,13.1148 12.0005,13.1148 C13.3375,13.1148 14.4275,14.2548 14.4275,15.6438 C14.4275,16.6478 13.8555,17.5128 13.0385,17.9268" id="Path" fill-opacity="0.85" fill="#FFFFFF"></path>
        </g>
    </g>
</svg>