<?xml version="1.0" encoding="UTF-8"?>
<svg width="24px" height="24px" viewBox="0 0 24 24" version="1.1" xmlns="http://www.w3.org/2000/svg" xmlns:xlink="http://www.w3.org/1999/xlink">
    <!-- Generator: Sketch 49.3 (51167) - http://www.bohemiancoding.com/sketch -->
    <title>icon_me_withdraw</title>
    <desc>Created with Sketch.</desc>
    <defs>
        <linearGradient x1="50%" y1="0%" x2="50%" y2="100%" id="linearGradient-1">
            <stop stop-color="#FBB649" offset="0%"></stop>
            <stop stop-color="#FF9023" offset="100%"></stop>
        </linearGradient>
    </defs>
    <g id="icon_me_withdraw" stroke="none" stroke-width="1" fill="none" fill-rule="evenodd">
        <g>
            <path d="M15.1143048,1.29762857 C12.9132571,1.29762857 13.3731619,3.31115238 12.9352571,3.31115238 C12.6890667,3.31115238 12.4376381,1.77429524 11.4413524,1.11115238 C10.7352571,0.635533333 9.73897143,1.83924762 8.8076381,1.85600952 C7.70868571,1.85600952 6.27868571,1.73134286 6.27868571,3.2682 C6.25982857,4.1869619 7.09582857,5.69239048 7.69820952,6.4529619 C7.50020952,6.51581905 7.37030476,6.66458095 7.37030476,6.8374381 C7.37030476,7.06686667 7.61754286,7.27429524 7.91192381,7.27429524 L16.3138286,7.27429524 C16.6249714,7.27429524 16.8554476,7.08781905 16.8554476,6.8374381 C16.8554476,6.62477143 16.6417333,6.45610476 16.3766857,6.4309619 C16.9046857,5.70391429 17.6474476,4.28124762 17.8726857,3.18648571 C18.1628762,1.75229524 17.2923048,1.29762857 15.1143048,1.29762857" id="Fill-1" fill-opacity="0.6" fill="url(#linearGradient-1)"></path>
            <path d="M16.7727905,7.99788571 L7.53907619,7.99788571 C4.55126667,9.66045714 2.00031429,12.9175048 2.00031429,17.2096 C2.00031429,21.9427429 6.75126667,22.9997905 12.1863143,22.9997905 C17.6213619,22.9997905 22.1481238,21.8777905 22.1481238,17.1488381 C22.1250762,13.1856952 19.9261238,9.76417143 16.7727905,7.99788571" id="Path" fill="url(#linearGradient-1)"></path>
            <path d="M13.2758381,18.7936 L13.2758381,19.6620762 C13.2758381,19.9596 13.0338381,20.2016 12.7363143,20.2016 L11.8395524,20.2016 C11.5420286,20.2016 11.3000286,19.9596 11.3000286,19.6620762 L11.3000286,18.8826476 C10.6850762,18.8407429 10.0701238,18.741219 9.46879048,18.5861714 C9.22888571,18.5243619 9.06231429,18.3085524 9.06231429,18.0602667 L9.06231429,17.0870286 C9.06231429,16.9613143 9.12202857,16.843981 9.22364762,16.7696 C9.32526667,16.6962667 9.45621905,16.6742667 9.57564762,16.7140762 C10.3718381,16.9717905 11.1868857,17.1027429 11.9987905,17.1027429 C13.3135524,17.1027429 13.3135524,16.6470286 13.3135524,16.475219 C13.3135524,16.2656952 13.3135524,15.9147429 12.5163143,15.9147429 L11.4959333,15.9147429 C9.25926667,15.9147429 8.78888571,14.5549333 8.78888571,13.4130286 C8.78888571,12.449219 9.23202857,11.2696 11.3000286,11.0255048 L11.3000286,10.2261714 C11.3000286,9.92969524 11.5420286,9.68769524 11.8395524,9.68769524 L12.7363143,9.68769524 C13.0338381,9.68769524 13.2758381,9.92969524 13.2758381,10.2261714 L13.2758381,11.0422667 C13.7451714,11.0946476 14.2166,11.1816 14.6796476,11.3031238 C14.9185048,11.3638857 15.0861238,11.5807429 15.0861238,11.8290286 L15.0861238,12.801219 C15.0861238,12.9269333 15.0253619,13.0453143 14.9237429,13.1186476 C14.8231714,13.1930286 14.6911714,13.2150286 14.5717429,13.175219 C13.7755524,12.9164571 12.9626,12.7865524 12.1559333,12.7865524 C10.7657429,12.7865524 10.7657429,13.257981 10.7657429,13.4130286 C10.7657429,13.6969333 10.8223143,13.9735048 11.4959333,13.9735048 L12.5163143,13.9735048 C14.8650762,13.9735048 15.3585048,15.3333143 15.3585048,16.475219 C15.3585048,17.349981 14.9907905,18.4436952 13.2758381,18.7936" id="Path" fill-opacity="0.85" fill="#FFFFFF"></path>
        </g>
    </g>
</svg>