<?xml version="1.0" encoding="UTF-8"?>
<svg width="24px" height="24px" viewBox="0 0 24 24" version="1.1" xmlns="http://www.w3.org/2000/svg" xmlns:xlink="http://www.w3.org/1999/xlink">
    <!-- Generator: Sketch 49.3 (51167) - http://www.bohemiancoding.com/sketch -->
    <title>icon_keyboard</title>
    <desc>Created with Sketch.</desc>
    <defs></defs>
    <g id="icon_keyboard" stroke="none" stroke-width="1" fill="none" fill-rule="evenodd">
        <path d="M4.05022247,5 L19.9503775,5 C21.0828872,5 22.0003,5.92003723 22.0003,7.05454936 L22.0003,16.9464529 C22.0003,18.0799628 21.0828872,19 19.9503775,19 L4.05022247,19 C2.91871329,19 2.0003,18.0799628 2.0003,16.9464529 L2.0003,7.05454936 C2.0003,5.92003723 2.91871329,5 4.05022247,5 Z M18.999,8.706 L18.999,7.293 C18.999,7.131 18.868,7 18.707,7 L17.293,7 C17.131,7 17,7.131 17,7.293 L17,8.706 C17,8.868 17.131,8.999 17.293,8.999 L18.707,8.999 C18.868,8.999 18.999,8.868 18.999,8.706 Z M17.999,12.707 L17.999,11.293 C17.999,11.131 17.868,11 17.706,11 L16.292,11 C16.131,11 16,11.131 16,11.293 L16,12.707 C16,12.868 16.131,13 16.292,13 L17.706,13 C17.868,13 17.999,12.868 17.999,12.707 Z M17,16.706 L17,15.292 C17,15.131 16.8674357,15 16.7035013,15 L7.29649868,15 C7.13256426,15 7,15.131 7,15.292 L7,16.706 C7,16.868 7.13256426,16.999 7.29649868,16.999 L16.7035013,16.999 C16.8674357,16.999 17,16.868 17,16.706 Z M6,11.293 L6,12.707 C6,12.868 6.132,13 6.293,13 L7.707,13 C7.868,13 8,12.868 8,12.707 L8,11.293 C8,11.131 7.868,11 7.707,11 L6.293,11 C6.132,11 6,11.131 6,11.293 Z M5,7.293 L5,8.706 C5,8.868 5.132,8.999 5.293,8.999 L6.707,8.999 C6.868,8.999 7,8.868 7,8.706 L7,7.293 C7,7.131 6.868,7 6.707,7 L5.293,7 C5.132,7 5,7.131 5,7.293 Z M8,7.293 L8,8.706 C8,8.868 8.132,8.999 8.293,8.999 L9.707,8.999 C9.869,8.999 10,8.868 10,8.706 L10,7.293 C10,7.131 9.869,7 9.707,7 L8.293,7 C8.132,7 8,7.131 8,7.293 Z M10.999,12.707 L10.999,11.293 C10.999,11.131 10.868,11 10.706,11 L9.293,11 C9.131,11 9,11.131 9,11.293 L9,12.707 C9,12.868 9.131,13 9.293,13 L10.706,13 C10.868,13 10.999,12.868 10.999,12.707 Z M10.9963,7.293 L10.9963,8.706 C10.9963,8.868 11.1273,8.999 11.2893,8.999 L12.7023,8.999 C12.8643,8.999 12.9953,8.868 12.9953,8.706 L12.9953,7.293 C12.9953,7.131 12.8643,7 12.7023,7 L11.2893,7 C11.1273,7 10.9963,7.131 10.9963,7.293 Z M15,12.707 L15,11.293 C15,11.131 14.868,11 14.707,11 L13.293,11 C13.132,11 13,11.131 13,11.293 L13,12.707 C13,12.868 13.132,13 13.293,13 L14.707,13 C14.868,13 15,12.868 15,12.707 Z M14,7.293 L14,8.706 C14,8.868 14.13,8.999 14.292,8.999 L15.706,8.999 C15.868,8.999 15.999,8.868 15.999,8.706 L15.999,7.293 C15.999,7.131 15.868,7 15.706,7 L14.292,7 C14.13,7 14,7.131 14,7.293 Z" id="Combined-Shape" fill="#666666"></path>
    </g>
</svg>