<?xml version="1.0" encoding="UTF-8"?>
<svg width="24px" height="24px" viewBox="0 0 24 24" version="1.1" xmlns="http://www.w3.org/2000/svg" xmlns:xlink="http://www.w3.org/1999/xlink">
    <!-- Generator: Sketch 49.3 (51167) - http://www.bohemiancoding.com/sketch -->
    <title>icon_picture_normal</title>
    <desc>Created with Sketch.</desc>
    <defs></defs>
    <g id="icon_picture_normal" stroke="none" stroke-width="1" fill="none" fill-rule="evenodd">
        <path d="M21.3076923,17.5384615 C21.3076923,18.4692308 20.5461538,19.2307692 19.6153846,19.2307692 L4.38461538,19.2307692 C3.45384615,19.2307692 2.69230769,18.4692308 2.69230769,17.5384615 L2.69230769,15.8343077 L6.02530769,12.5106154 C6.52115385,12.0156154 7.32415385,12.0164615 7.81915385,12.5114615 L9.67223077,14.3645385 C10.0166154,14.7089231 10.5801538,14.692 10.9042308,14.3264615 L15.7603077,8.83915385 C16.301,8.22738462 17.2706923,8.279 17.7445385,8.94323077 L21.3076923,13.9465385 L21.3076923,17.5384615 Z M7.34615385,6.53846154 C8.51469231,6.53846154 9.46153846,7.48530769 9.46153846,8.65384615 C9.46153846,9.82238462 8.51469231,10.7692308 7.34615385,10.7692308 C6.17761538,10.7692308 5.23076923,9.82238462 5.23076923,8.65384615 C5.23076923,7.48530769 6.17761538,6.53846154 7.34615385,6.53846154 Z M20.4615385,2 L3.53846154,2 C2.14230769,2 1,3.35 1,5 L1,19 C1,20.65 2.14230769,22 3.53846154,22 L20.4615385,22 C21.8576923,22 23,20.65 23,19 L23,5 C23,3.35 21.8576923,2 20.4615385,2 Z" id="picture" fill="#999999"></path>
    </g>
</svg>